<svg width="538" height="371" viewBox="0 0 538 371" fill="none" xmlns="http://www.w3.org/2000/svg">
<g clip-path="url(#clip0_184_452)">
<path d="M269 371C413.417 371 530.491 361.03 530.491 348.731C530.491 336.432 413.417 326.462 269 326.462C124.583 326.462 7.50928 336.432 7.50928 348.731C7.50928 361.03 124.583 371 269 371Z" fill="#E0E2E6"/>
<path d="M459.329 0H78.6704V341.317H459.329V0Z" fill="white"/>
<path opacity="0.3" d="M459.329 0H78.6704V40.3607H459.329V0Z" fill="#091638"/>
<path d="M109.386 20.1804C109.386 24.4619 105.912 27.934 101.629 27.934C97.3454 27.934 93.8716 24.4619 93.8716 20.1804C93.8716 15.8989 97.3454 12.4268 101.629 12.4268C105.912 12.4268 109.386 15.8989 109.386 20.1804Z" fill="white"/>
<path d="M135.505 20.1804C135.505 24.4619 132.032 27.934 127.748 27.934C123.465 27.934 119.991 24.4619 119.991 20.1804C119.991 15.8989 123.465 12.4268 127.748 12.4268C132.032 12.4268 135.505 15.8989 135.505 20.1804Z" fill="white"/>
<path d="M161.625 20.1804C161.625 24.4619 158.151 27.934 153.867 27.934C149.584 27.934 146.11 24.4619 146.11 20.1804C146.11 15.8989 149.584 12.4268 153.867 12.4268C158.151 12.4268 161.625 15.8989 161.625 20.1804Z" fill="white"/>
<path d="M403.552 156.9C405.381 152.279 402.795 148.494 397.832 148.494H214.607C209.632 148.494 204.081 152.279 202.253 156.9L161.638 259.851C159.809 264.472 162.395 268.258 167.358 268.258H350.583C355.559 268.258 361.109 264.472 362.937 259.851L403.552 156.9Z" fill="#091638"/>
<path d="M152.849 251.067L193.464 148.115C195.292 143.495 200.842 139.709 205.818 139.709H349.656V130.585C349.656 125.612 345.594 121.552 340.618 121.552H276.457C271.481 121.552 265.474 117.975 263.11 113.616L254.373 97.534C251.997 93.1612 245.989 89.5977 241.027 89.5977H158.595C153.619 89.5977 149.558 93.6572 149.558 98.6305V250.44C149.558 254.8 152.692 258.468 156.832 259.303C153.045 258.507 151.281 255.113 152.875 251.08L152.849 251.067Z" fill="#091638"/>
<path d="M285.977 176.976C267.106 176.976 251.813 192.262 251.813 211.124C251.813 229.986 267.106 245.271 285.977 245.271C304.848 245.271 320.141 229.986 320.141 211.124C320.141 192.262 304.848 176.976 285.977 176.976ZM302.693 222.911L297.77 227.832L285.977 216.045L274.184 227.832L269.261 222.911L281.054 211.124L269.261 199.337L274.184 194.415L285.977 206.203L297.77 194.415L302.693 199.337L290.901 211.124L302.693 222.911Z" fill="#EB725F"/>
<path d="M470.976 287.731L286.323 340.41L289.559 351.745L474.212 299.066L470.976 287.731Z" fill="#091638"/>
<path d="M470.973 287.736L386.772 311.758L390.009 323.093L474.21 299.071L470.973 287.736Z" fill="#EB725F"/>
<path d="M477.631 352.216C510.158 349.451 534.284 320.855 531.519 288.344C528.753 255.833 500.143 231.718 467.616 234.482C435.089 237.247 410.963 265.843 413.729 298.354C416.494 330.865 445.105 354.98 477.631 352.216Z" fill="#EB725F"/>
<path d="M516.074 312.757C526.774 288.77 515.993 260.656 491.995 249.961C467.997 239.266 439.869 250.042 429.169 274.028C418.469 298.015 429.25 326.13 453.248 336.825C477.246 347.519 505.374 336.744 516.074 312.757Z" fill="#D0DBF7"/>
<path d="M508.381 283.165L502.713 284.783C497.972 268.193 480.616 258.559 464.031 263.285L462.411 257.619C482.131 251.994 502.765 263.454 508.394 283.165H508.381Z" fill="white"/>
<path d="M479.702 81.5437H465.102V66.9502H459.904V81.5437H445.304V86.7389H459.904V101.332H465.102V86.7389H479.702V81.5437Z" fill="#E2E6FF"/>
<path d="M512.403 131.76H504.45V123.81H501.616V131.76H493.663V134.592H501.616V142.542H504.45V134.592H512.403V131.76Z" fill="#E2E6FF"/>
<path d="M424.63 117.884H415.005V108.264H411.571V117.884H401.946V121.317H411.571V130.937H415.005V121.317H424.63V117.884Z" fill="#E2E6FF"/>
<path d="M59.9955 116.383H45.3949V101.789H40.1972V116.383H25.5967V121.578H40.1972V136.172H45.3949V121.578H59.9955V116.383Z" fill="#E2E6FF"/>
<path d="M123.726 107.676H115.773V99.7271H112.952V107.676H104.999V110.509H112.952V118.458H115.773V110.509H123.726V107.676Z" fill="#E2E6FF"/>
<path d="M75.3141 172.499H65.6762V162.879H62.2546V172.499H52.6167V175.932H62.2546V185.552H65.6762V175.932H75.3141V172.499Z" fill="#E2E6FF"/>
<path d="M395.063 69.9524C395.063 71.7015 393.64 73.1112 391.903 73.1112C390.166 73.1112 388.743 71.6884 388.743 69.9524C388.743 68.2163 390.153 66.7935 391.903 66.7935C393.653 66.7935 395.063 68.2163 395.063 69.9524Z" fill="#CAD2F9"/>
<path d="M538 183.712C538 187.014 535.323 189.703 532.006 189.703C528.689 189.703 526.012 187.027 526.012 183.712C526.012 180.396 528.689 177.72 532.006 177.72C535.323 177.72 538 180.396 538 183.712Z" fill="#CAD2F9"/>
<path d="M348.271 102.951C348.271 104.7 346.848 106.11 345.111 106.11C343.374 106.11 341.951 104.687 341.951 102.951C341.951 101.215 343.361 99.7922 345.111 99.7922C346.861 99.7922 348.271 101.215 348.271 102.951Z" fill="#CAD2F9"/>
<path d="M167.998 69.9524C167.998 73.2549 165.321 75.9438 162.004 75.9438C158.686 75.9438 156.009 73.2679 156.009 69.9524C156.009 66.6369 158.686 63.9609 162.004 63.9609C165.321 63.9609 167.998 66.6369 167.998 69.9524Z" fill="#CAD2F9"/>
<path d="M191.283 133.483C191.283 135.232 189.859 136.642 188.122 136.642C186.385 136.642 184.962 135.219 184.962 133.483C184.962 131.747 186.372 130.324 188.122 130.324C189.872 130.324 191.283 131.733 191.283 133.483Z" fill="#CAD2F9"/>
<path d="M6.33399 194.755C6.33399 196.504 4.9105 197.913 3.17359 197.913C1.43667 197.913 0.0131836 196.491 0.0131836 194.755C0.0131836 193.019 1.42361 191.596 3.17359 191.596C4.92356 191.596 6.33399 193.019 6.33399 194.755Z" fill="#CAD2F9"/>
</g>
<defs>
<clipPath id="clip0_184_452">
<rect width="538" height="371" fill="white"/>
</clipPath>
</defs>
</svg>
