<?xml version="1.0" encoding="UTF-8"?>
<svg id="OBJECTS" xmlns="http://www.w3.org/2000/svg" viewBox="0 0 411.96 284.22">
  <defs>
    <style>
      .cls-1 {
        fill: #d0dbf7;
      }

      .cls-1, .cls-2, .cls-3, .cls-4, .cls-5, .cls-6, .cls-7, .cls-8, .cls-9, .cls-10, .cls-11, .cls-12, .cls-13, .cls-14, .cls-15, .cls-16 {
        stroke-width: 0px;
      }

      .cls-2 {
        fill: #d8918a;
      }

      .cls-3 {
        fill: #cad2f9;
      }

      .cls-4 {
        fill: #6a3771;
      }

      .cls-5 {
        fill: #f8e5e0;
      }

      .cls-6 {
        fill: #ca535f;
      }

      .cls-7 {
        opacity: .3;
      }

      .cls-7, .cls-15 {
        fill: #091638;
      }

      .cls-8 {
        fill: #e2e6ff;
      }

      .cls-9 {
        fill: #94a3e5;
      }

      .cls-10 {
        fill: #ecb551;
      }

      .cls-11 {
        fill: #b86363;
      }

      .cls-12 {
        fill: #fff;
      }

      .cls-13 {
        fill: #aa3346;
      }

      .cls-14 {
        fill: #edf0fc;
      }

      .cls-16 {
        fill: #eb725f;
      }
    </style>
  </defs>
  <ellipse class="cls-14" cx="208.41" cy="267.16" rx="200.23" ry="17.06"/>
  <g>
    <g>
      <rect class="cls-12" x="62.66" width="291.48" height="261.48"/>
      <rect class="cls-7" x="62.66" width="291.48" height="30.92"/>
    </g>
    <g>
      <path class="cls-12" d="M86.18,15.46c0,3.28-2.66,5.94-5.94,5.94s-5.94-2.66-5.94-5.94,2.66-5.94,5.94-5.94,5.94,2.66,5.94,5.94Z"/>
      <path class="cls-12" d="M106.18,15.46c0,3.28-2.66,5.94-5.94,5.94s-5.94-2.66-5.94-5.94,2.66-5.94,5.94-5.94,5.94,2.66,5.94,5.94Z"/>
      <path class="cls-12" d="M126.18,15.46c0,3.28-2.66,5.94-5.94,5.94s-5.94-2.66-5.94-5.94,2.66-5.94,5.94-5.94,5.94,2.66,5.94,5.94Z"/>
    </g>
  </g>
  <g>
    <g>
      <rect class="cls-15" x="220.1" y="240.41" width="147.04" height="9.03" transform="translate(-55.96 90.01) rotate(-15.93)"/>
      <rect class="cls-16" x="298.55" y="229.44" width="67.05" height="9.03" transform="translate(-51.47 100.15) rotate(-15.93)"/>
    </g>
    <g>
      <g>
        <circle class="cls-16" cx="364.31" cy="224.75" r="45.26" transform="translate(-17.72 31.65) rotate(-4.86)"/>
        <circle class="cls-1" cx="364.31" cy="224.75" r="36.43" transform="translate(10.7 465.98) rotate(-65.97)"/>
      </g>
      <path class="cls-12" d="M391.7,216.93l-4.34,1.24c-3.63-12.71-16.92-20.09-29.62-16.47l-1.24-4.34c15.1-4.31,30.9,4.47,35.21,19.57Z"/>
    </g>
  </g>
  <g>
    <polygon class="cls-8" points="369.74 62.47 358.56 62.47 358.56 51.29 354.58 51.29 354.58 62.47 343.4 62.47 343.4 66.45 354.58 66.45 354.58 77.63 358.56 77.63 358.56 66.45 369.74 66.45 369.74 62.47"/>
    <polygon class="cls-8" points="394.78 100.94 388.69 100.94 388.69 94.85 386.53 94.85 386.53 100.94 380.44 100.94 380.44 103.11 386.53 103.11 386.53 109.2 388.69 109.2 388.69 103.11 394.78 103.11 394.78 100.94"/>
    <polygon class="cls-8" points="327.58 90.31 320.2 90.31 320.2 82.94 317.58 82.94 317.58 90.31 310.2 90.31 310.2 92.94 317.58 92.94 317.58 100.31 320.2 100.31 320.2 92.94 327.58 92.94 327.58 90.31"/>
    <polygon class="cls-8" points="48.37 89.16 37.19 89.16 37.19 77.98 33.21 77.98 33.21 89.16 22.03 89.16 22.03 93.14 33.21 93.14 33.21 104.32 37.19 104.32 37.19 93.14 48.37 93.14 48.37 89.16"/>
    <polygon class="cls-8" points="97.17 82.49 91.08 82.49 91.08 76.4 88.91 76.4 88.91 82.49 82.82 82.49 82.82 84.66 88.91 84.66 88.91 90.75 91.08 90.75 91.08 84.66 97.17 84.66 97.17 82.49"/>
    <polygon class="cls-8" points="60.09 132.15 52.72 132.15 52.72 124.78 50.09 124.78 50.09 132.15 42.72 132.15 42.72 134.78 50.09 134.78 50.09 142.15 52.72 142.15 52.72 134.78 60.09 134.78 60.09 132.15"/>
  </g>
  <g>
    <path class="cls-3" d="M304.94,53.59c0,1.34-1.09,2.42-2.42,2.42s-2.42-1.09-2.42-2.42,1.08-2.42,2.42-2.42,2.42,1.09,2.42,2.42Z"/>
    <path class="cls-3" d="M414.39,140.74c0,2.53-2.05,4.59-4.59,4.59s-4.59-2.05-4.59-4.59,2.05-4.59,4.59-4.59,4.59,2.05,4.59,4.59Z"/>
    <path class="cls-3" d="M269.1,78.87c0,1.34-1.09,2.42-2.42,2.42s-2.42-1.09-2.42-2.42,1.08-2.42,2.42-2.42,2.42,1.09,2.42,2.42Z"/>
    <path class="cls-3" d="M131.06,53.59c0,2.53-2.05,4.59-4.59,4.59s-4.59-2.05-4.59-4.59,2.05-4.59,4.59-4.59,4.59,2.05,4.59,4.59Z"/>
    <path class="cls-3" d="M148.9,102.26c0,1.34-1.09,2.42-2.42,2.42s-2.42-1.09-2.42-2.42,1.08-2.42,2.42-2.42,2.42,1.08,2.42,2.42Z"/>
    <path class="cls-3" d="M7.27,149.2c0,1.34-1.09,2.42-2.42,2.42s-2.42-1.09-2.42-2.42,1.08-2.42,2.42-2.42,2.42,1.09,2.42,2.42Z"/>
  </g>
  <g>
    <circle class="cls-5" cx="100.24" cy="198.3" r="55.82"/>
    <g>
      <rect class="cls-2" x="85.48" y="190.95" width="29.53" height="33.36"/>
      <g>
        <path class="cls-2" d="M129.17,167.53c-1.63-3.9-4.96-1.98-4.96-1.98,1.92-17.71-7.08-29.4-23.97-29.4s-25.89,11.69-23.97,29.4c0,0-3.33-1.91-4.96,1.98s1.35,13.03,3.19,15.94c1.84,2.9,5.1,5.1,5.1,5.1,0,0,.21,3.26,1.06,5.52.85,2.27,10.48,12.69,13.31,14.28,3.71,2.19,9.19,2.19,12.52,0,2.83-1.59,12.47-12.01,13.31-14.28.85-2.27,1.06-5.52,1.06-5.52,0,0,3.26-2.2,5.1-5.1,1.84-2.9,4.82-12.04,3.19-15.94Z"/>
        <g>
          <path class="cls-11" d="M100.39,210.38c-2.32,0-4.69-.56-6.6-1.68-1.71-.96-5.66-4.91-8.59-8.17l.56-.5c2.99,3.32,6.84,7.14,8.41,8.02,3.59,2.11,8.92,2.12,12.13.01,1.6-.9,5.45-4.72,8.43-8.03l.56.5c-2.94,3.26-6.88,7.2-8.6,8.17-1.7,1.12-3.97,1.68-6.3,1.68Z"/>
          <rect class="cls-11" x="78.76" y="180.94" width=".75" height="7.65" transform="translate(-22.01 11.07) rotate(-7.03)"/>
          <rect class="cls-11" x="117.51" y="184.39" width="7.64" height=".75" transform="translate(-75.72 284.93) rotate(-83.65)"/>
          <g>
            <path class="cls-11" d="M73.49,176.29c-.16-.57-1.48-5.65.35-7.04.61-.39,1.1-.35,1.41-.25.93.3,1.4,1.46,1.45,1.59l-.7.27c-.1-.26-.48-.98-.98-1.14-.23-.08-.48-.02-.75.15-1.05.8-.6,4.25-.06,6.23l-.72.2Z"/>
            <path class="cls-11" d="M126.99,176.29l-.72-.2c.54-1.98,1-5.43-.08-6.24-.25-.16-.5-.21-.73-.14-.6.2-.98,1.13-.98,1.14l-.7-.27c.05-.13.52-1.28,1.45-1.59.31-.1.81-.14,1.39.24,1.85,1.4.53,6.48.37,7.05Z"/>
          </g>
        </g>
        <path class="cls-15" d="M78.67,174.86c5.01.03,1.22-16.14,5.15-20.06,2-1.99,4.91-1.66,7.41-1.03,2.91.74,5.92,1.75,8.99,1.83,3.25.09,6.34-1.11,9.46-1.86,2.42-.59,5.05-.85,6.97,1.06,3.93,3.91.14,20.08,5.15,20.06-.35-3.74-.36-7.83,2.39-9.31h0c1.92-17.71-7.08-29.4-23.97-29.4s-25.89,11.69-23.97,29.4h0c2.23,1.45,2.74,5.4,2.39,9.31Z"/>
      </g>
      <path class="cls-10" d="M147.95,227.29c-15.76-7.03-32.94-9.52-32.94-9.52-7.88,8.22-22.57,8.33-29.53,0,0,0-17.18,2.49-32.94,9.52,9.8,16.08,27.5,26.83,47.71,26.83s37.91-10.74,47.71-26.83Z"/>
      <polygon class="cls-12" points="81.49 218.34 85.48 211.18 98.39 222.78 90.49 231.44 81.49 218.34"/>
      <polygon class="cls-12" points="118.98 218.34 114.99 211.18 102.07 222.78 109.98 231.44 118.98 218.34"/>
    </g>
  </g>
  <g>
    <circle class="cls-5" cx="306.67" cy="132.75" r="55.82" transform="translate(-4.05 255.73) rotate(-45)"/>
    <g>
      <path class="cls-15" d="M343.18,162.22c15.76-10.69,6.36-28.23-7.92-51.72-2.06-3.39-3.38-7.16-4.18-11.05-2.33-11.38-12.4-19.95-24.47-19.95s-22.31,8.7-24.53,20.23c-.77,4.01-2.04,7.91-3.95,11.52-13.13,24.84-25.98,44.86-7.22,50.98h72.28Z"/>
      <rect class="cls-2" x="293.56" y="125.4" width="26.15" height="33.36"/>
      <g>
        <path class="cls-10" d="M354.63,161.28c-12.31-5.17-34.76-9.07-34.76-9.07-8.62,7.26-19.52,7.21-26.3,0,0,0-22.74,3.37-35.57,7.86,9.17,16.29,26.27,27.52,46.08,28.42.89.03,1.77.06,2.67.06,20.37-.03,38.17-10.97,47.89-27.28Z"/>
        <path class="cls-12" d="M293.56,148.43l-5.15,4.62s3.01,12.96,9.15,13.2,9.05-8.62,9.05-8.62c-5.87-1.57-10.21-4.64-13.04-9.21Z"/>
        <path class="cls-12" d="M319.71,148.43l5.15,4.62s-3.01,12.96-9.15,13.2-9.05-8.62-9.05-8.62c5.87-1.57,10.21-4.64,13.04-9.21Z"/>
      </g>
      <g>
        <circle class="cls-15" cx="306.64" cy="80.98" r="12" transform="translate(177.59 370.68) rotate(-80.78)"/>
        <g>
          <path class="cls-2" d="M306.6,85h0c-16.86.02-20.69,12.64-20.34,25.35,0,9.16-.65,12.13.2,14.4.47,3.23,7.03,19.7,20.13,19.7s19.1-15.6,20.26-19.7c.85-2.27.08-5.24.08-14.4.35-12.71-3.48-25.33-20.34-25.35Z"/>
          <path class="cls-11" d="M306.6,144.83c-4.91,0-9.39-2.22-13.32-6.6l.56-.5c3.78,4.21,8.08,6.35,12.76,6.35s9.11-2.13,12.83-6.33l.56.5c-3.87,4.37-8.37,6.58-13.39,6.58Z"/>
          <path class="cls-2" d="M287.01,110.65s-3.39-4.37-6.87-1.81c-3.48,2.56-.09,17.07,6.87,14.52,6.96-2.56,0-12.7,0-12.7Z"/>
          <path class="cls-2" d="M326.27,110.65s3.39-4.37,6.87-1.81c3.48,2.56.09,17.07-6.87,14.52-6.96-2.56,0-12.7,0-12.7Z"/>
          <rect class="cls-11" x="285.39" y="117.39" width=".75" height="6.3" transform="translate(-13.91 40.62) rotate(-7.94)"/>
          <rect class="cls-11" x="324.42" y="120.16" width="6.27" height=".75" transform="translate(177.2 435.52) rotate(-84.69)"/>
          <path class="cls-11" d="M281.87,116.38c-.77-2.24-.81-3.85-.12-4.76.59-.78,1.47-.73,1.5-.73l-.04.75.02-.37-.02.37s-.53-.01-.88.45c-.36.49-.61,1.58.24,4.05l-.71.24Z"/>
          <path class="cls-11" d="M331.68,116.38l-.71-.24c.85-2.48.59-3.58.23-4.06-.34-.45-.86-.44-.87-.44l-.04-.75s.92-.04,1.5.73c.69.91.65,2.51-.12,4.76Z"/>
          <path class="cls-12" d="M331.56,122.77c0,.86-.7,1.55-1.55,1.55s-1.55-.7-1.55-1.55.7-1.55,1.55-1.55,1.55.7,1.55,1.55Z"/>
          <path class="cls-12" d="M284.97,122.77c0,.86-.7,1.55-1.55,1.55s-1.55-.7-1.55-1.55.7-1.55,1.55-1.55,1.55.7,1.55,1.55Z"/>
        </g>
        <path class="cls-15" d="M285.43,104.26c13.37,2.83,27.46,3.04,42.41,0,0,0,.28-20.64-20.64-21.33-20.92-.68-21.77,21.33-21.77,21.33Z"/>
        <path class="cls-4" d="M318.34,82.85c-7.79-3.04-15.68-3.04-23.47,0l-.27-.7c7.97-3.12,16.05-3.12,24.02,0l-.27.7Z"/>
        <path class="cls-4" d="M328.47,103.98c-.56-5.85-2.61-10.97-6.1-15.23l.58-.48c3.58,4.38,5.69,9.64,6.26,15.64l-.75.07Z"/>
        <path class="cls-4" d="M285.35,103.98l-.75-.07c.57-6,2.68-11.26,6.26-15.64l.58.48c-3.49,4.26-5.54,9.39-6.1,15.23Z"/>
        <path class="cls-4" d="M292.14,105.42l-.75-.06c.27-3.28.94-6.61,2-9.89l.71.23c-1.04,3.22-1.71,6.49-1.97,9.72Z"/>
        <path class="cls-4" d="M319.01,105.75l-.75-.03c.08-2.22-.28-4.85-1.05-7.83l.73-.19c.79,3.05,1.16,5.76,1.08,8.05Z"/>
        <path class="cls-4" d="M316.48,95.38c-.55-1.72-1.03-2.86-1.03-2.87l.69-.29s.49,1.18,1.05,2.93l-.71.23Z"/>
      </g>
    </g>
  </g>
  <g>
    <circle class="cls-5" cx="213.94" cy="205.92" r="26.33" transform="translate(-35.62 366.83) rotate(-76.72)"/>
    <g>
      <path class="cls-15" d="M218.89,213.77c1.8-.07,3.58-.22,5.32-.47,3.28-.46,6.2-1.28,7.74-4.47,1.56-3.43-.22-8.58-1.98-11.78-1.09-1.99-2.19-3.95-2.96-6.09-1.07-2.97-1.86-6.17-4.12-8.51-.09-.09-.18-.18-.27-.27-2.33-2.23-5.47-3.49-8.69-3.49-4.68,0-9.2,2.75-11.24,6.98-1.39,2.9-1.86,6.14-3.2,9.06-1.4,3.07-3.06,6.05-3.63,9.42-.37,2.17.22,4.36,1.74,5.96,1.84,1.94,4.28,2.76,6.82,3.11,4.7.65,9.62.73,14.47.54Z"/>
      <g>
        <rect class="cls-2" x="207.79" y="202.52" width="12.33" height="15.73"/>
        <path class="cls-12" d="M236.6,219.45c-5.8-2.44-16.4-4.28-16.4-4.28-4.07,3.42-9.21,3.4-12.41,0,0,0-10.72,1.59-16.78,3.71,4.33,7.68,12.39,12.98,21.73,13.41.42.01.84.03,1.26.03,9.61-.01,18-5.17,22.59-12.87Z"/>
        <path class="cls-9" d="M205.29,215.58c-3.54.6-10.04,1.82-14.27,3.3,3.87,6.88,10.75,11.85,18.86,13.11,0,0-4.03-7.28-4.59-16.42Z"/>
        <path class="cls-9" d="M222.6,215.58c3.54.6,10.04,1.82,14.27,3.3-3.87,6.88-10.75,11.85-18.86,13.11,0,0,4.03-7.28,4.59-16.42Z"/>
      </g>
      <g>
        <path class="cls-2" d="M213.94,183.47h0c-7.95,0-9.76,5.96-9.59,11.96,0,4.32-.3,5.72.1,6.79.22,1.52,3.31,9.29,9.5,9.29s9.01-7.36,9.55-9.29c.4-1.07.04-2.47.04-6.79.17-5.99-1.64-11.95-9.59-11.96Z"/>
        <path class="cls-11" d="M213.94,211.69c-2.12,0-4.59-1.22-6.28-3.11l.26-.24c1.63,1.82,4,2.99,6.02,2.99s4.47-1.2,6.05-2.99l.27.23c-1.64,1.86-4.18,3.11-6.31,3.11Z"/>
        <path class="cls-2" d="M204.53,196s-1.63-1.92-3.3-.8c-1.67,1.12-.05,7.48,3.3,6.36,3.35-1.12,0-5.57,0-5.57Z"/>
        <path class="cls-2" d="M223.39,196s1.63-1.92,3.3-.8c1.67,1.12.05,7.48-3.3,6.36-3.35-1.12,0-5.57,0-5.57Z"/>
        <rect class="cls-11" x="203.94" y="198.75" width=".35" height="2.97" transform="translate(-25.7 30.11) rotate(-7.94)"/>
        <rect class="cls-11" x="222.35" y="200.05" width="2.96" height=".35" transform="translate(3.72 404.55) rotate(-84.69)"/>
        <path class="cls-11" d="M202.07,198.52c-.36-.96-.39-1.65-.09-2.07.28-.38.73-.36.75-.36l-.02.35s-.28,0-.45.22c-.15.21-.26.69.13,1.73l-.33.12Z"/>
        <path class="cls-11" d="M225.99,198.52l-.33-.12c.39-1.04.29-1.51.14-1.73-.17-.23-.44-.22-.45-.22l-.02-.35s.47-.02.75.36c.3.41.27,1.11-.09,2.07Z"/>
        <path class="cls-15" d="M203.29,195.06c1.48-2.65,8.5-2.3,10.67-8.34,2.1,6.9,8.29,4.88,11.02,8.56,0,0-1.3-13.89-11.02-13.89s-10.67,13.67-10.67,13.67Z"/>
      </g>
    </g>
  </g>
  <g>
    <circle class="cls-5" cx="146.47" cy="92.21" r="27.7" transform="translate(-22.3 130.58) rotate(-45)"/>
    <g>
      <g>
        <rect class="cls-2" x="139.15" y="88.59" width="14.66" height="16.55"/>
        <g>
          <path class="cls-6" d="M170.15,106.62c-7.82-3.49-16.35-4.73-16.35-4.73-3.91,4.08-11.2,4.14-14.66,0,0,0-8.53,1.24-16.35,4.73,4.86,7.98,13.65,13.31,23.67,13.31s18.81-5.33,23.67-13.31Z"/>
          <path class="cls-13" d="M146.27,106.85s-.09,0-.14,0c-3.79-.04-6.98-1.71-8.76-4.58l.32-.2c1.71,2.76,4.79,4.36,8.45,4.4.04,0,.09,0,.13,0,3.77,0,7.2-1.68,8.97-4.41l.31.2c-1.84,2.83-5.39,4.58-9.28,4.58Z"/>
        </g>
      </g>
      <g>
        <path class="cls-2" d="M160.31,80.53c-.78-1.86-2.37-.95-2.37-.95.33-7.3-3.39-12.37-11.46-12.37s-11.75,6.08-11.46,12.37c0,0-1.59-.91-2.37.95-.78,1.86.64,6.23,1.52,7.62.88,1.39,2.22.8,2.22.8,0,0,.33,3.2.73,4.28.41,1.08,5.01,6.07,6.37,6.83,1.78,1.05,4.39,1.05,5.99,0,1.36-.76,5.96-5.75,6.37-6.83.41-1.08.73-4.34.73-4.34,0,0,1.34.64,2.22-.75.88-1.39,2.3-5.76,1.52-7.62Z"/>
        <g>
          <path class="cls-11" d="M146.54,100.31c-3.29,0-5.72-2.28-7.27-3.99l.28-.25c1.5,1.66,3.85,3.87,6.99,3.87,2.97,0,5.13-1.96,6.86-3.87l.28.25c-1.78,1.97-4.02,3.99-7.13,3.99Z"/>
          <rect class="cls-11" x="136.08" y="86.95" width=".37" height="2.01" transform="translate(-8.94 15.71) rotate(-6.39)"/>
          <rect class="cls-11" x="155.69" y="87.74" width="1.95" height=".37" transform="translate(52.9 234.59) rotate(-84.02)"/>
          <g>
            <path class="cls-11" d="M133.67,84.72c-.08-.28-.71-2.71.17-3.37.29-.19.53-.17.68-.12.45.15.67.7.7.76l-.35.13c-.05-.12-.23-.47-.47-.54-.11-.03-.22-.01-.35.07-.5.38-.28,2.03-.02,2.97l-.36.1Z"/>
            <path class="cls-11" d="M159.28,84.72l-.36-.1c.26-.95.48-2.59-.03-2.98-.12-.08-.23-.1-.34-.06-.24.08-.42.42-.47.54l-.35-.13c.02-.06.25-.62.7-.76.15-.05.39-.07.67.11.89.67.25,3.11.18,3.38Z"/>
          </g>
        </g>
        <path class="cls-15" d="M135.01,79.58c.92.97,1.32,2.13,1.54,3.68-.17-5.18,2.24-7.03,2.2-13.41-3.17.33-4.49,5.03-4.09,9.58l.35.14Z"/>
        <path class="cls-15" d="M157.92,79.58c-.92.97-1.32,2.13-1.54,3.68.17-5.18-2.24-7.03-2.2-13.41,3.17.33,4.49,5.03,4.09,9.58l-.35.14Z"/>
      </g>
    </g>
  </g>
</svg>