<?xml version="1.0" encoding="UTF-8"?>
<svg id="OBJECTS" xmlns="http://www.w3.org/2000/svg" viewBox="0 0 411.96 284.22">
  <defs>
    <style>
      .cls-1 {
        fill: #d0dbf7;
      }

      .cls-1, .cls-2, .cls-3, .cls-4, .cls-5, .cls-6, .cls-7, .cls-8 {
        stroke-width: 0px;
      }

      .cls-2 {
        fill: #cad2f9;
      }

      .cls-3 {
        opacity: .3;
      }

      .cls-3, .cls-7 {
        fill: #091638;
      }

      .cls-4 {
        fill: #e2e6ff;
      }

      .cls-5 {
        fill: #fff;
      }

      .cls-6 {
        fill: #edf0fc;
      }

      .cls-8 {
        fill: #eb725f;
      }
    </style>
  </defs>
  <ellipse class="cls-6" cx="208.41" cy="267.16" rx="200.23" ry="17.06"/>
  <g>
    <g>
      <g>
        <rect class="cls-5" x="62.66" width="291.48" height="261.48"/>
        <rect class="cls-3" x="62.66" width="291.48" height="30.92"/>
      </g>
      <g>
        <path class="cls-5" d="M86.18,15.46c0,3.28-2.66,5.94-5.94,5.94s-5.94-2.66-5.94-5.94,2.66-5.94,5.94-5.94,5.94,2.66,5.94,5.94Z"/>
        <path class="cls-5" d="M106.18,15.46c0,3.28-2.66,5.94-5.94,5.94s-5.94-2.66-5.94-5.94,2.66-5.94,5.94-5.94,5.94,2.66,5.94,5.94Z"/>
        <path class="cls-5" d="M126.18,15.46c0,3.28-2.66,5.94-5.94,5.94s-5.94-2.66-5.94-5.94,2.66-5.94,5.94-5.94,5.94,2.66,5.94,5.94Z"/>
      </g>
    </g>
    <g>
      <g>
        <path class="cls-7" d="M311.44,120.2c1.4-3.54-.58-6.44-4.38-6.44h-140.3c-3.81,0-8.06,2.9-9.46,6.44l-31.1,78.87c-1.4,3.54.58,6.44,4.38,6.44h140.3c3.81,0,8.06-2.9,9.46-6.44l31.1-78.87Z"/>
        <path class="cls-7" d="M119.47,192.34l31.1-78.87c1.4-3.54,5.65-6.44,9.46-6.44h110.14v-6.99c0-3.81-3.11-6.92-6.92-6.92h-49.13c-3.81,0-8.41-2.74-10.22-6.08l-6.69-12.32c-1.82-3.35-6.42-6.08-10.22-6.08h-63.12c-3.81,0-6.92,3.11-6.92,6.92v116.3c0,3.34,2.4,6.15,5.57,6.79-2.9-.61-4.25-3.21-3.03-6.3Z"/>
      </g>
      <path class="cls-8" d="M221.4,135.58c-14.45,0-26.16,11.71-26.16,26.16s11.71,26.16,26.16,26.16,26.16-11.71,26.16-26.16-11.71-26.16-26.16-26.16ZM234.2,170.77l-3.77,3.77-9.03-9.03-9.03,9.03-3.77-3.77,9.03-9.03-9.03-9.03,3.77-3.77,9.03,9.03,9.03-9.03,3.77,3.77-9.03,9.03,9.03,9.03Z"/>
    </g>
  </g>
  <g>
    <g>
      <rect class="cls-7" x="220.1" y="240.41" width="147.04" height="9.03" transform="translate(-55.96 90.01) rotate(-15.93)"/>
      <rect class="cls-8" x="298.55" y="229.44" width="67.05" height="9.03" transform="translate(-51.47 100.15) rotate(-15.93)"/>
    </g>
    <g>
      <g>
        <circle class="cls-8" cx="364.31" cy="224.75" r="45.26" transform="translate(-17.72 31.65) rotate(-4.86)"/>
        <circle class="cls-1" cx="364.31" cy="224.75" r="36.43" transform="translate(10.7 465.98) rotate(-65.97)"/>
      </g>
      <path class="cls-5" d="M391.7,216.93l-4.34,1.24c-3.63-12.71-16.92-20.09-29.62-16.47l-1.24-4.34c15.1-4.31,30.9,4.47,35.21,19.57Z"/>
    </g>
  </g>
  <g>
    <polygon class="cls-4" points="369.74 62.47 358.56 62.47 358.56 51.29 354.58 51.29 354.58 62.47 343.4 62.47 343.4 66.45 354.58 66.45 354.58 77.63 358.56 77.63 358.56 66.45 369.74 66.45 369.74 62.47"/>
    <polygon class="cls-4" points="394.78 100.94 388.69 100.94 388.69 94.85 386.53 94.85 386.53 100.94 380.44 100.94 380.44 103.11 386.53 103.11 386.53 109.2 388.69 109.2 388.69 103.11 394.78 103.11 394.78 100.94"/>
    <polygon class="cls-4" points="327.58 90.31 320.2 90.31 320.2 82.94 317.58 82.94 317.58 90.31 310.2 90.31 310.2 92.94 317.58 92.94 317.58 100.31 320.2 100.31 320.2 92.94 327.58 92.94 327.58 90.31"/>
    <polygon class="cls-4" points="48.37 89.16 37.19 89.16 37.19 77.98 33.21 77.98 33.21 89.16 22.03 89.16 22.03 93.14 33.21 93.14 33.21 104.32 37.19 104.32 37.19 93.14 48.37 93.14 48.37 89.16"/>
    <polygon class="cls-4" points="97.17 82.49 91.08 82.49 91.08 76.4 88.91 76.4 88.91 82.49 82.82 82.49 82.82 84.66 88.91 84.66 88.91 90.75 91.08 90.75 91.08 84.66 97.17 84.66 97.17 82.49"/>
    <polygon class="cls-4" points="60.09 132.15 52.72 132.15 52.72 124.78 50.09 124.78 50.09 132.15 42.72 132.15 42.72 134.78 50.09 134.78 50.09 142.15 52.72 142.15 52.72 134.78 60.09 134.78 60.09 132.15"/>
  </g>
  <g>
    <path class="cls-2" d="M304.94,53.59c0,1.34-1.09,2.42-2.42,2.42s-2.42-1.09-2.42-2.42,1.08-2.42,2.42-2.42,2.42,1.09,2.42,2.42Z"/>
    <path class="cls-2" d="M414.39,140.74c0,2.53-2.05,4.59-4.59,4.59s-4.59-2.05-4.59-4.59,2.05-4.59,4.59-4.59,4.59,2.05,4.59,4.59Z"/>
    <path class="cls-2" d="M269.1,78.87c0,1.34-1.09,2.42-2.42,2.42s-2.42-1.09-2.42-2.42,1.08-2.42,2.42-2.42,2.42,1.09,2.42,2.42Z"/>
    <path class="cls-2" d="M131.06,53.59c0,2.53-2.05,4.59-4.59,4.59s-4.59-2.05-4.59-4.59,2.05-4.59,4.59-4.59,4.59,2.05,4.59,4.59Z"/>
    <path class="cls-2" d="M148.9,102.26c0,1.34-1.09,2.42-2.42,2.42s-2.42-1.09-2.42-2.42,1.08-2.42,2.42-2.42,2.42,1.08,2.42,2.42Z"/>
    <path class="cls-2" d="M7.27,149.2c0,1.34-1.09,2.42-2.42,2.42s-2.42-1.09-2.42-2.42,1.08-2.42,2.42-2.42,2.42,1.09,2.42,2.42Z"/>
  </g>
</svg>