<?xml version="1.0" encoding="UTF-8"?>
<svg id="OBJECTS" xmlns="http://www.w3.org/2000/svg" viewBox="0 0 411.96 284.22">
  <defs>
    <style>
      .cls-1 {
        fill: #263238;
      }

      .cls-1, .cls-2, .cls-3, .cls-4, .cls-5, .cls-6, .cls-7, .cls-8, .cls-9 {
        stroke-width: 0px;
      }

      .cls-2, .cls-3, .cls-4 {
        opacity: .3;
      }

      .cls-2, .cls-6 {
        fill: #fff;
      }

      .cls-3, .cls-5 {
        fill: #407bff;
      }

      .cls-4, .cls-9 {
        fill: #091638;
      }

      .cls-7 {
        fill: #edf0fc;
      }

      .cls-8 {
        fill: #000;
        opacity: .2;
      }
    </style>
  </defs>
  <ellipse class="cls-7" cx="208.41" cy="267.16" rx="200.23" ry="17.06"/>
  <g>
    <g>
      <rect class="cls-6" x="62.66" y="0" width="291.48" height="261.48"/>
      <rect class="cls-4" x="62.66" y="0" width="291.48" height="30.92"/>
    </g>
    <g>
      <path class="cls-6" d="M86.18,15.46c0,3.28-2.66,5.94-5.94,5.94s-5.94-2.66-5.94-5.94,2.66-5.94,5.94-5.94,5.94,2.66,5.94,5.94Z"/>
      <path class="cls-6" d="M106.18,15.46c0,3.28-2.66,5.94-5.94,5.94s-5.94-2.66-5.94-5.94,2.66-5.94,5.94-5.94,5.94,2.66,5.94,5.94Z"/>
      <path class="cls-6" d="M126.18,15.46c0,3.28-2.66,5.94-5.94,5.94s-5.94-2.66-5.94-5.94,2.66-5.94,5.94-5.94,5.94,2.66,5.94,5.94Z"/>
    </g>
  </g>
  <g>
    <g>
      <path class="cls-1" d="M118.8,72.4s-.09,0-.13-.02c-3.28-1.27-5.23-2.51-6.25-4-.74.15-1.57.05-2.35-.32-.76-.36-1.5-1-2.02-1.91-.49.38-1.1.48-1.76.27-.74-.23-1.51-.85-2.15-1.75-.41.29-.82.34-1.13.31-2.16-.18-5.09-4.48-5.3-9.07,0-.2.15-.37.35-.38.2-.02.37.15.38.35.2,4.36,2.99,8.25,4.64,8.38.27.03.49-.06.68-.2-.99-1.73-1.5-4.21-.74-6.85.63-2.19,1.18-3.04,1.84-2.88,1.25.31,1.09,5.07.43,8.21-.15.71-.37,1.22-.62,1.59.57.85,1.25,1.42,1.85,1.61.53.17.93.03,1.22-.25-.57-1.41-.69-3.33.09-5.78,1.02-3.22,1.43-3.31,1.68-3.36.17-.04.35.02.47.16.67.76-.13,5.76-.98,8.24-.11.32-.25.6-.41.84.45.89,1.12,1.49,1.81,1.82.56.27,1.13.36,1.65.31-.07-.14-.12-.28-.18-.42-.58-1.56-.29-3.37.86-5.51.77-1.42,1.39-2.09,1.97-2.09h0c.17,0,.49.06.72.48.63,1.17.18,5.03-1.08,6.95-.3.45-.7.79-1.18,1.02.97,1.28,2.83,2.41,5.78,3.56.19.07.28.28.21.47-.06.14-.19.23-.34.23ZM114.68,60.42s-.41,0-1.33,1.71c-1.05,1.95-1.32,3.56-.82,4.92.06.17.13.33.22.49.39-.17.72-.44.96-.8,1.02-1.56,1.51-4.76,1.13-6.01-.08-.26-.16-.3-.16-.3ZM109.47,57.35c-.19.35-.5,1.08-.97,2.57-.62,1.97-.63,3.55-.28,4.76.02-.06.05-.12.07-.18.86-2.5,1.27-5.95,1.19-7.15ZM104.67,55.06c-.12.11-.48.57-.98,2.34-.67,2.34-.26,4.47.53,6,.15-.32.26-.68.33-1.02.76-3.57.54-6.81.13-7.32Z"/>
      <path class="cls-1" d="M146.46,110.54c-1.11,0-2.28-.25-3.32-.86-.17-.1-.23-.32-.13-.5.1-.17.32-.23.5-.13,2.6,1.52,5.95.46,6.64-.65.08-.13.15-.3.11-.49-1.03.11-2.29-.16-3.73-1.07-1.85-1.16-1.99-1.5-1.98-1.78,0-.16.1-.3.25-.38.72-.37,4.01,1.15,5.37,2.04.18.12.33.25.45.38.61-.15,1.07-.46,1.38-.83.21-.26.36-.54.43-.82-.05,0-.1.01-.15.02-1.16.12-2.33-.38-3.57-1.53-.85-.79-1.19-1.33-1.08-1.77.04-.14.15-.38.52-.48,1.01-.25,3.49.81,4.51,1.92.23.25.38.55.47.86.95-.45,1.95-1.45,3.14-3.11.12-.16.34-.2.51-.08.16.12.2.34.08.51-1.37,1.92-2.52,3.01-3.67,3.45-.05.51-.26,1.03-.63,1.48-.37.44-.91.82-1.59,1.03.07.33,0,.67-.2,1.01-.61.99-2.37,1.76-4.31,1.76ZM145.82,105.5c.24.18.6.42,1.1.73.99.62,1.87.9,2.62.96-1.21-.75-2.78-1.41-3.72-1.69ZM148.36,102.4c.04.11.2.41.85,1.01,1.08,1,2.07,1.44,3.01,1.34.08,0,.16-.02.23-.03-.05-.22-.16-.43-.32-.6-1.02-1.12-3.27-1.83-3.77-1.72Z"/>
      <path class="cls-9" d="M156.1,109.54l-11.34,2.06-10.29-56.18-21.88,3.97-35.65,63.3,3.83,20.89,45.72-8.31,3.13,17.09,21.88-3.97-3.13-17.09,11.34-2.06-3.61-19.7ZM98.73,119.97l18.89-33.16,5.27,28.77-24.16,4.39Z"/>
    </g>
    <g>
      <path class="cls-9" d="M247.41,51.6c-.42-3.88-1.2-7.33-2.33-10.35-1.13-3.02-2.82-5.97-5.09-8.87-2.26-2.9-5.34-5.41-9.24-7.54-3.9-2.13-9.05-3.61-15.44-4.45-13.31-1.73-23.69.63-31.13,7.09-7.45,6.46-12.34,18.83-14.7,37.12-.96,7.44-1.19,14.31-.71,20.63.48,6.31,1.64,11.39,3.48,15.23,2.51,5.4,6.06,9.71,10.66,12.93,4.59,3.22,10.89,5.36,18.88,6.4,14.26,1.86,24.83-.88,31.7-8.21,6.88-7.33,11.44-19.73,13.68-37.18,1-7.79,1.08-15.38.23-22.79Z"/>
      <path class="cls-1" d="M208.36,112.32c-1.75-.06-3.61-.22-5.54-.47-6.66-.87-11.82-2.55-15.32-5.01-3.46-2.42-6.07-5.61-8-9.75l-.04-.08c-1.4-2.93-2.31-7.1-2.72-12.39-.44-5.74-.22-12.13.67-18.99,2.6-20.17,7.96-28.59,12-32.09,4.71-4.09,11.08-5.94,19.45-5.65,1.72.06,3.53.21,5.4.46,5.37.7,9.63,1.89,12.64,3.53,2.92,1.59,5.2,3.43,6.77,5.45,1.75,2.24,3.06,4.51,3.9,6.74.89,2.38,1.52,5.21,1.87,8.41.78,6.77.7,13.79-.21,20.9-2.02,15.67-5.92,26.69-11.58,32.73-4.21,4.49-10.52,6.52-19.29,6.22,0,0,0,0,0,0Z"/>
      <path class="cls-9" d="M222.6,51.81l.09-2.76-1.69-.55c-.07-.94-.23-1.87-.45-2.77l1.43-1.06-.97-2.59-1.77.14c-.42-.84-.92-1.63-1.48-2.38l.92-1.53-1.89-2.02-1.59.81c-.71-.61-1.47-1.16-2.27-1.64l.26-1.76-2.52-1.14-1.15,1.35c-.88-.29-1.79-.5-2.73-.64l-.43-1.73-2.76-.09-.55,1.69c-.95.08-1.87.23-2.77.45l-1.07-1.43-2.59.97.14,1.77c-.84.43-1.63.93-2.38,1.48l-1.53-.92-2.02,1.88.81,1.59c-.61.71-1.16,1.47-1.64,2.27l-1.76-.26-1.15,2.52,1.36,1.15c-.28.88-.51,1.8-.64,2.73l-1.73.44-.09,2.76,1.7.55c.07.95.23,1.87.45,2.77l-1.43,1.06.97,2.59,1.77-.14c.42.84.92,1.63,1.48,2.38l-.92,1.53,1.89,2.02,1.59-.81c.71.61,1.47,1.16,2.27,1.64l-.26,1.76,2.52,1.14,1.16-1.35c.88.29,1.79.5,2.73.64l.43,1.73,2.76.09.55-1.69c.95-.08,1.87-.23,2.77-.45l1.06,1.43,2.59-.97-.14-1.77c.84-.43,1.63-.93,2.38-1.48l1.53.92,2.02-1.88-.81-1.59c.61-.71,1.16-1.47,1.64-2.27l1.76.26,1.15-2.52-1.36-1.15c.28-.88.51-1.79.64-2.73l1.73-.44ZM203.98,60.74c-6.04-.21-10.76-5.27-10.56-11.3.21-6.04,5.27-10.77,11.3-10.56,6.04.21,10.76,5.27,10.56,11.31-.21,6.04-5.27,10.76-11.3,10.56Z"/>
      <path class="cls-3" d="M234.09,102.44l.2-1.86-1.12-.46c0-.64-.06-1.27-.17-1.89l1.02-.65-.52-1.8h-1.21c-.24-.58-.53-1.14-.87-1.67l.69-.99-1.17-1.45-1.11.46c-.44-.44-.92-.85-1.45-1.22l.27-1.18-1.64-.9-.86.86c-.59-.25-1.19-.43-1.8-.57l-.21-1.19-1.86-.21-.46,1.12c-.64,0-1.26.07-1.89.17l-.65-1.03-1.8.53v1.21c-.57.24-1.13.53-1.67.87l-.99-.7-1.45,1.17.46,1.11c-.43.45-.85.92-1.22,1.45l-1.17-.26-.9,1.64.86.85c-.24.6-.43,1.19-.57,1.81l-1.19.2-.2,1.86,1.12.46c0,.63.06,1.26.17,1.88l-1.03.65.53,1.8h1.21c.24.58.53,1.14.87,1.67l-.7.99,1.17,1.46,1.12-.47c.44.44.92.85,1.45,1.22l-.27,1.18,1.64.9.86-.86c.59.24,1.19.42,1.8.56l.21,1.19,1.86.21.46-1.12c.63,0,1.26-.07,1.89-.17l.65,1.03,1.79-.53v-1.21c.58-.24,1.14-.53,1.68-.87l.98.7,1.46-1.17-.47-1.11c.44-.44.85-.92,1.22-1.45l1.17.26.9-1.64-.86-.85c.24-.6.42-1.19.56-1.8l1.2-.21ZM224.72,101.72c-.86,1.57-2.84,2.15-4.41,1.29-1.57-.86-2.14-2.84-1.28-4.41.86-1.57,2.83-2.14,4.4-1.28,1.57.86,2.15,2.83,1.29,4.4Z"/>
      <path class="cls-6" d="M244.4,71l-2.17-1.5s0,0,0,0c-.21-.79-.51-1.55-.87-2.26l.56-2.18-3.15-3.37-2.21.41c-.69-.41-1.42-.76-2.19-1.02,0,0,0,0,0,0l-1.35-2.27-4.61-.16-1.5,2.17s0,0,0,0c-.79.21-1.54.51-2.26.87l-2.18-.56-3.37,3.15.4,2.21s0,0,0,0c-.42.69-.76,1.43-1.02,2.2l-2.27,1.35-.16,4.61,2.17,1.5c.21.79.5,1.55.87,2.27t0,0l-.55,2.17,3.15,3.37,2.2-.4c.69.41,1.43.76,2.21,1.03,0,0,0,0,0,0l1.34,2.26,4.61.16,1.5-2.17c.8-.21,1.56-.51,2.28-.87,0,0,0,0,0,0l2.17.55,3.37-3.15-.4-2.21c.42-.69.76-1.43,1.02-2.2,0,0,0,0,0,0l2.27-1.35.16-4.61ZM230.04,78c-2.86-.1-5.1-2.5-5-5.36.1-2.86,2.49-5.1,5.36-5,2.86.1,5.1,2.49,5,5.36-.1,2.86-2.49,5.1-5.36,5Z"/>
      <path class="cls-9" d="M260.23,34.23l.38-.91s0,0,0,0c.27-.14.53-.31.76-.5l.84.03.99-1.42-.32-.78c.1-.28.17-.58.2-.89,0,0,0,0,0,0l.73-.67-.3-1.7-.91-.38s0,0,0,0c-.14-.27-.31-.53-.5-.76l.03-.84-1.42-.99-.78.32s0,0,0,0c-.29-.1-.58-.17-.89-.2l-.67-.73-1.7.3-.38.92c-.27.14-.53.31-.76.5t0,0l-.84-.03-.99,1.42.32.78c-.1.29-.17.59-.2.89,0,0,0,0,0,0l-.73.67.3,1.7.91.38c.14.28.31.53.5.77,0,0,0,0,0,0l-.03.84,1.42.99.78-.32c.29.1.58.17.89.2,0,0,0,0,0,0l.67.73,1.7-.3ZM256.53,29.51c-.19-1.06.52-2.07,1.57-2.26,1.06-.19,2.07.51,2.26,1.57s-.51,2.07-1.57,2.26c-1.06.19-2.07-.51-2.26-1.57Z"/>
      <path class="cls-9" d="M240.26,29.4l-.56-.47c.97-1.14,2.34-2.59,4.37-3.66l.34.65c-2.17,1.14-3.56,2.78-4.15,3.48Z"/>
      <path class="cls-9" d="M246.07,25.27l-.29-.67c2.75-1.18,5.63-1.64,8.54-1.37l-.07.72c-2.79-.27-5.55.18-8.19,1.31Z"/>
      <path class="cls-9" d="M244.7,30.3l-.6-.41c1.49-2.2,4.45-4.11,7.18-4.65l.14.71c-2.56.51-5.33,2.3-6.72,4.34Z"/>
      <path class="cls-6" d="M196.41,100.33c-.1,0-.19-.04-.26-.11l-1.53-1.57c-.78-.07-1.55-.22-2.29-.43l-2.38,1.05c-.11.05-.24.04-.35-.03l-3.98-2.64c-.1-.07-.16-.18-.16-.31l.04-2.59c-.48-.6-.92-1.26-1.29-1.95l-2.04-.79c-.12-.04-.2-.14-.23-.27l-.95-4.68c-.02-.12.01-.25.1-.33l1.57-1.52c.07-.77.22-1.54.42-2.29l-1.05-2.37c-.05-.11-.04-.24.03-.35l2.64-3.98c.07-.1.17-.17.31-.16l2.59.04c.61-.49,1.26-.92,1.95-1.28l.79-2.04c.04-.12.15-.2.27-.23l4.68-.95c.12-.02.25.01.33.1l1.52,1.57c.77.07,1.54.22,2.29.43l2.37-1.05c.11-.05.24-.04.35.03l3.98,2.64c.1.07.16.18.16.31l-.04,2.59c.48.6.92,1.26,1.28,1.95l2.04.79c.12.04.2.14.23.27l.95,4.68c.02.12-.01.25-.1.33l-1.57,1.53c-.07.76-.21,1.53-.43,2.29l1.05,2.38c.05.11.04.25-.03.35l-2.64,3.98c-.07.1-.18.15-.31.16l-2.59-.04c-.6.48-1.26.91-1.95,1.28l-.79,2.05c-.04.12-.15.2-.27.23l-4.68.95s-.05,0-.07,0ZM192.31,97.47s.07,0,.1.01c.78.23,1.59.38,2.41.45.09,0,.17.05.23.11l1.48,1.53,4.29-.87.77-1.99c.03-.08.09-.15.17-.19.73-.38,1.42-.83,2.05-1.35.07-.05.14-.09.24-.08l2.53.04,2.42-3.65-1.02-2.32c-.03-.08-.04-.17-.02-.25.23-.79.38-1.6.45-2.41,0-.09.05-.17.11-.23l1.53-1.48-.87-4.29-1.98-.77c-.08-.03-.15-.1-.19-.18-.38-.73-.83-1.41-1.35-2.04-.05-.07-.08-.15-.08-.24l.04-2.53-3.65-2.42-2.31,1.02c-.08.03-.17.04-.25.02-.79-.23-1.6-.38-2.42-.45-.09,0-.17-.05-.23-.11l-1.48-1.53-4.29.87-.77,1.98c-.03.08-.09.15-.17.19-.72.38-1.41.83-2.05,1.35-.07.05-.15.09-.24.08l-2.52-.04-2.42,3.65,1.02,2.31c.04.1.04.21,0,.31-.21.73-.36,1.54-.42,2.35,0,.09-.05.17-.11.23l-1.53,1.48.87,4.29,1.98.77c.09.03.16.1.2.19.38.72.83,1.41,1.34,2.03.05.07.09.15.08.24l-.04,2.53,3.65,2.42,2.32-1.02s.1-.03.15-.03ZM195.89,95.11c-1.84,0-3.7-.52-5.34-1.61-2.16-1.43-3.63-3.62-4.15-6.15-.52-2.54-.01-5.12,1.42-7.28h0c2.96-4.46,8.99-5.68,13.44-2.73,4.46,2.96,5.68,8.99,2.72,13.44-1.86,2.81-4.95,4.33-8.1,4.33ZM188.43,80.47c-1.32,2-1.79,4.39-1.31,6.74.48,2.35,1.84,4.37,3.84,5.69,4.12,2.73,9.7,1.6,12.43-2.52,2.73-4.12,1.6-9.7-2.52-12.43-4.12-2.73-9.7-1.6-12.43,2.52h0Z"/>
    </g>
    <g>
      <path class="cls-9" d="M335.02,116.11l-11.42-1.54,7.55-56.62-22.03-2.97-53.45,49.21-2.81,21.05,46.05,6.22-2.3,17.22,22.03,2.97,2.3-17.22,11.42,1.54,2.65-19.86ZM277.23,108.31l28.2-25.71-3.87,28.99-24.33-3.28Z"/>
      <path class="cls-1" d="M311.96,151.11s-.04,0-.07,0c-.2-.04-.33-.23-.29-.42l16.97-93.09c.04-.2.23-.32.42-.29.2.04.33.23.29.42l-16.97,93.09c-.03.18-.19.3-.36.3Z"/>
      <g>
        <path class="cls-1" d="M327.02,59.15c-.01.33-.29.59-.62.58s-.59-.29-.58-.62.29-.59.62-.58c.33.01.59.29.58.62Z"/>
        <path class="cls-1" d="M324.59,71.74c-.01.33-.29.59-.62.58s-.59-.29-.58-.62.29-.59.62-.58c.33.01.59.29.58.62Z"/>
        <path class="cls-1" d="M322.17,84.33c-.01.33-.29.59-.62.58s-.59-.29-.58-.62.29-.59.62-.58c.33.01.59.29.58.62Z"/>
        <path class="cls-1" d="M317.4,97.43c-.01.33-.29.59-.62.58s-.59-.29-.58-.62.29-.59.62-.58.59.29.58.62Z"/>
        <path class="cls-1" d="M317.32,109.51c-.01.33-.29.59-.62.58s-.59-.29-.58-.62.29-.59.62-.58.59.29.58.62Z"/>
        <path class="cls-1" d="M314.89,122.1c-.01.33-.29.59-.62.58s-.59-.29-.58-.62c.01-.33.29-.59.62-.58s.59.29.58.62Z"/>
        <path class="cls-1" d="M312.47,134.68c-.01.33-.29.59-.62.58s-.59-.29-.58-.62.29-.59.62-.58.59.29.58.62Z"/>
        <path class="cls-1" d="M310.04,147.27c-.01.33-.29.59-.62.58s-.59-.29-.58-.62.29-.59.62-.58.59.29.58.62Z"/>
      </g>
      <path class="cls-1" d="M316.8,97.78c-.17,0-.32-.12-.36-.29-.04-.2.08-.39.28-.43l1.81-.39c.2-.04.39.08.43.28.04.2-.08.39-.28.43l-1.81.39s-.05,0-.08,0Z"/>
      <g>
        <path class="cls-1" d="M322.84,91.07s-1.63,4.24-2.18,6.81c-.55,2.57-.58,8.31-.58,8.31"/>
        <path class="cls-1" d="M320.08,106.56h0c-.2,0-.36-.16-.36-.37,0-.24.04-5.81.59-8.39.55-2.57,2.13-6.69,2.19-6.87.07-.19.28-.28.47-.21.19.07.28.28.21.47-.02.04-1.62,4.25-2.16,6.76-.53,2.5-.57,8.18-.57,8.24,0,.2-.16.36-.36.36Z"/>
      </g>
    </g>
  </g>
  <g>
    <path class="cls-1" d="M182.97,196.38c.93-14.95-.78-42.13,27.33-38.53,30.12,3.86,21.5,39.08,21.5,39.08l-48.83-.55Z"/>
    <g>
      <circle class="cls-6" cx="202.37" cy="175.13" r="12.26"/>
      <path class="cls-1" d="M203.98,162.89c-5.81-.99-12.02,3.29-12.63,7.63l23.03,2.12c-.81-4.94-5.79-8.96-10.4-9.75Z"/>
      <path class="cls-1" d="M211.75,174.83c-.16,3.21-1.91,5.72-3.9,5.62s-3.47-2.78-3.31-5.99c.16-3.21,1.91-5.72,3.9-5.62s3.47,2.78,3.31,5.99Z"/>
      <path class="cls-9" d="M202.37,188.06c-7.13,0-12.93-5.8-12.93-12.93s5.8-12.93,12.93-12.93,12.93,5.8,12.93,12.93-5.8,12.93-12.93,12.93ZM202.37,163.54c-6.39,0-11.6,5.2-11.6,11.6s5.2,11.6,11.6,11.6,11.6-5.2,11.6-11.6-5.2-11.6-11.6-11.6Z"/>
    </g>
    <path class="cls-2" d="M228.38,196.01s-.05,0-.08,0c-.18-.04-.29-.22-.25-.4.02-.09,2.15-9.14-.06-18.29-.04-.18.07-.36.25-.4.18-.04.36.07.4.25,2.25,9.31.08,18.51.06,18.6-.04.15-.17.26-.32.26Z"/>
    <path class="cls-2" d="M226.51,172.3c-.13,0-.25-.07-.3-.19-.86-1.87-1.92-3.59-3.16-5.11-.12-.14-.1-.35.05-.47.14-.12.35-.1.47.05,1.28,1.56,2.37,3.33,3.25,5.25.08.17,0,.37-.16.44-.05.02-.09.03-.14.03Z"/>
    <path class="cls-1" d="M120.43,266.51c-.08,0-.17,0-.25,0-1.84-.05-3.29-1.59-3.24-3.43.05-1.84,1.57-3.27,3.43-3.24.02,0,.04,0,.06,0,1.93,0,6.57-2.34,16.27-17.64.52-.82,1.38-1.37,2.34-1.51.96-.14,1.94.15,2.67.79,11.97,10.44,24.66,16.94,24.79,17,1.64.83,2.3,2.84,1.46,4.49-.83,1.64-2.84,2.3-4.48,1.47-.5-.26-11.59-5.93-23.22-15.45-8.13,12.23-14.17,17.53-19.82,17.53Z"/>
    <path class="cls-1" d="M141.07,240.87c-.09,0-.19,0-.29-.02-1.09-.16-1.86-1.17-1.7-2.27.47-3.32-.11-15.77-4.32-25.44-.38-.88-.09-1.91.71-2.45,9.14-6.23,28.62-6.97,29.44-7,1.1-.02,2.03.83,2.07,1.93.04,1.1-.83,2.03-1.93,2.07-.18,0-17.21.66-25.95,5.47,3.73,9.64,4.57,21.65,3.95,25.99-.14,1-1,1.72-1.98,1.72Z"/>
    <path class="cls-9" d="M144.43,238.28c-1.33-3.14-7.33-2.78-10.86-.09-1.88,1.44-4.43,5.77-4.7,7.34-.27,1.57.82,2.99,2.68,2.83,2.3-.2,5.46-3.54,5.46-3.54-2.1,2.06.61,3.51,4.66.53,2.24-1.65,4.25-3.55,2.76-7.06Z"/>
    <path class="cls-1" d="M259.22,197.26s-.06,0-.09-.01c-.18-.05-.28-.24-.23-.41.89-3.1,1.86-4.99,3.14-6.04-.2-.66-.17-1.43.1-2.17.27-.73.79-1.45,1.58-2.01-.39-.42-.53-.96-.39-1.59.15-.69.66-1.45,1.43-2.11-.3-.35-.38-.73-.38-1.01-.02-1.99,3.68-5.02,7.85-5.59.18-.03.35.1.38.29.02.18-.1.35-.29.38-3.96.54-7.29,3.41-7.27,4.93,0,.25.09.44.24.6,1.5-1.05,3.72-1.72,6.19-1.24,2.05.39,2.88.82,2.78,1.45-.18,1.17-4.54,1.41-7.47,1.06-.66-.08-1.15-.24-1.5-.43-.73.59-1.19,1.26-1.31,1.82-.11.5.05.85.33,1.09,1.24-.64,2.98-.91,5.28-.4,3.03.67,3.14,1.04,3.21,1.26.05.16,0,.32-.11.44-.64.68-5.28.36-7.61-.22-.3-.07-.57-.18-.8-.3-.77.49-1.27,1.14-1.51,1.81-.2.53-.24,1.06-.15,1.54.12-.07.24-.14.37-.2,1.38-.66,3.05-.55,5.11.33,1.36.58,2.02,1.1,2.07,1.63.01.16-.02.45-.38.7-1.02.68-4.58.57-6.44-.41-.44-.23-.78-.58-1.03-.99-1.09,1-1.97,2.78-2.77,5.58-.04.15-.18.24-.32.24ZM262.84,191.04c.18.34.46.62.81.81,1.51.8,4.47.98,5.58.54.23-.09.26-.17.26-.17,0,0-.04-.38-1.67-1.07-1.87-.8-3.36-.91-4.56-.35-.15.07-.29.15-.43.24ZM265.07,186.65c.06.02.12.03.17.05,2.36.58,5.54.68,6.63.5-.34-.14-1.03-.37-2.43-.68-1.85-.41-3.3-.28-4.38.14ZM265.91,182.9c.3.11.64.18.96.22,3.33.39,6.26-.07,6.7-.49-.11-.1-.56-.39-2.22-.71-2.19-.42-4.11.13-5.44.98Z"/>
    <path class="cls-1" d="M172.34,265.4c.44-.14.29-.57-.2-.57h-9.04c-17.21-1.82-29.23.62-21.65,1.2,7.57.58-.53.45-6.07,2.55-5.53,2.09,41.15,2.62,45.39,0,3.92-2.42-14.54-1.22-8.44-3.18Z"/>
    <polygon class="cls-9" points="237.04 268.06 158.42 265.45 155.16 189.22 248 191.3 237.04 268.06"/>
    <path class="cls-1" d="M182.97,266.6c-.17,0-.32-.13-.33-.31l-6.3-76.56c-.02-.18.12-.34.31-.36.19-.01.35.12.36.3l6.3,76.56c.01.18-.12.34-.31.36,0,0-.02,0-.03,0Z"/>
    <g>
      <polygon class="cls-5" points="237.04 268.06 258.17 264.84 264.83 193.96 248 191.3 237.04 268.06"/>
      <polygon class="cls-8" points="237.04 268.06 258.17 264.84 264.83 193.96 248 191.3 237.04 268.06"/>
    </g>
    <path class="cls-1" d="M165.14,250.76l-1.94-45.29c-.2-4.73,3.63-8.64,8.36-8.54l58.77,1.31c4.91.11,8.62,4.48,7.92,9.34l-6.52,45.64c-.59,4.14-4.2,7.16-8.38,7.03l-50.31-1.67c-4.28-.14-7.73-3.56-7.91-7.83Z"/>
    <g>
      <path class="cls-6" d="M171.49,210.83l9.09.29-.07,2.34-5.69-.18-.06,1.75,5.28.17-.07,2.24-5.28-.17-.07,2.16,5.86.19-.08,2.49-9.26-.29.35-10.98Z"/>
      <path class="cls-6" d="M182.27,222.16l.35-10.98,5.65.18c1.05.03,1.85.15,2.4.35.55.2.98.54,1.31,1.04.32.5.47,1.1.45,1.79-.02.61-.17,1.13-.44,1.56-.27.43-.64.78-1.11,1.04-.3.17-.7.3-1.21.4.4.15.69.29.87.43.12.09.3.29.52.59s.38.53.45.7l1.54,3.23-3.83-.12-1.71-3.41c-.22-.44-.41-.73-.59-.87-.24-.18-.51-.27-.82-.28h-.3s-.14,4.45-.14,4.45l-3.41-.11ZM185.88,215.74l1.43.05c.15,0,.46-.04.9-.12.23-.04.41-.15.56-.33.15-.18.23-.39.23-.63.01-.35-.09-.63-.31-.83-.22-.2-.64-.31-1.26-.33l-1.49-.05-.07,2.23Z"/>
      <path class="cls-6" d="M194.2,222.54l.35-10.98,5.65.18c1.05.03,1.85.15,2.4.35.55.2.98.54,1.31,1.04.32.5.47,1.1.45,1.79-.02.61-.17,1.13-.44,1.56-.27.43-.64.78-1.11,1.04-.3.17-.7.3-1.21.4.4.15.69.29.87.43.12.09.3.29.52.59.23.3.38.53.45.7l1.54,3.23-3.83-.12-1.71-3.41c-.22-.44-.41-.73-.59-.87-.24-.18-.51-.27-.82-.28h-.3s-.14,4.45-.14,4.45l-3.41-.11ZM197.82,216.12l1.43.05c.15,0,.46-.04.9-.12.23-.04.41-.15.56-.33.15-.18.23-.39.23-.63.01-.35-.09-.63-.31-.83-.22-.2-.64-.31-1.26-.33l-1.49-.05-.07,2.23Z"/>
      <path class="cls-6" d="M205.57,217.42c.06-1.79.6-3.17,1.63-4.14,1.03-.97,2.44-1.42,4.22-1.36,1.83.06,3.22.59,4.18,1.61.96,1.01,1.41,2.4,1.35,4.17-.04,1.28-.29,2.33-.75,3.14-.46.81-1.1,1.43-1.93,1.86-.83.43-1.86.63-3.07.59-1.24-.04-2.26-.27-3.06-.69-.8-.42-1.44-1.07-1.91-1.94-.48-.87-.7-1.95-.65-3.23ZM208.96,217.54c-.04,1.11.15,1.91.54,2.41.4.5.95.76,1.66.78.73.02,1.3-.2,1.72-.66.41-.46.64-1.31.68-2.54.03-1.03-.15-1.8-.55-2.29-.4-.49-.96-.75-1.67-.77-.68-.02-1.24.2-1.67.67-.43.47-.66,1.27-.7,2.38Z"/>
      <path class="cls-6" d="M218.65,223.32l.35-10.98,5.65.18c1.05.03,1.85.15,2.4.35.55.2.98.54,1.31,1.04.32.5.47,1.1.45,1.79-.02.61-.17,1.13-.44,1.56-.27.43-.64.78-1.11,1.04-.3.17-.7.3-1.21.4.4.15.69.29.87.43.12.09.3.29.52.59.23.3.38.53.45.7l1.54,3.23-3.83-.12-1.71-3.41c-.22-.44-.41-.73-.59-.87-.24-.18-.51-.27-.82-.28h-.3s-.14,4.45-.14,4.45l-3.41-.11ZM222.26,216.9l1.43.05c.15,0,.46-.04.9-.12.23-.04.41-.15.56-.33.15-.18.23-.39.23-.63.01-.35-.09-.63-.31-.83-.22-.2-.64-.31-1.26-.33l-1.49-.05-.07,2.23Z"/>
    </g>
    <path class="cls-6" d="M224.05,241.98c-.24,0-.47-.1-.65-.28l-5.71-6.25-6.16,5.63c-.36.33-.91.3-1.24-.06l-5.71-6.25-6.16,5.63c-.36.33-.91.3-1.24-.06l-5.71-6.25-6.16,5.63c-.17.16-.4.24-.63.23-.23-.01-.45-.11-.61-.28l-5.71-6.25-6.16,5.63c-.36.33-.91.3-1.24-.06-.33-.36-.3-.91.06-1.24l6.81-6.22c.36-.33.91-.3,1.24.06l5.71,6.25,6.16-5.63c.17-.16.4-.24.63-.23.23.01.45.11.61.28l5.71,6.25,6.16-5.63c.36-.33.91-.3,1.24.06l5.71,6.25,6.16-5.63c.36-.33.91-.3,1.24.06l6.3,6.9c.33.36.3.91-.06,1.24-.17.15-.38.23-.59.23Z"/>
    <g>
      <polygon class="cls-9" points="118.43 269.68 114.26 267.69 110.53 249.56 112.55 247.33 118.43 269.68"/>
      <g>
        <polygon class="cls-5" points="118.43 269.68 123.98 266.44 119.22 251.5 112.55 247.33 118.43 269.68"/>
        <polygon class="cls-8" points="118.43 269.68 123.98 266.44 119.22 251.5 112.55 247.33 118.43 269.68"/>
      </g>
    </g>
    <path class="cls-1" d="M209.33,272.98c-.16,0-.31,0-.46,0-1.84-.05-3.29-1.59-3.24-3.43.05-1.84,1.57-3.29,3.43-3.24,5.14.17,16.02-2.99,22.24-9.02.38-.37.85-.65,1.37-.8,10.54-3.16,14.46,3.23,14.62,3.5l-5.74,3.4s.02.05.08.12c-.06-.09-1.56-2.03-6.31-.83-7.8,7.12-19.77,10.31-25.97,10.31Z"/>
    <g>
      <polygon class="cls-9" points="208.96 277.41 196.81 276.65 195.85 254.24 212.18 254.85 208.96 277.41"/>
      <g>
        <polygon class="cls-5" points="208.96 277.41 211.8 274.58 213.56 260.61 212.18 254.85 208.96 277.41"/>
        <polygon class="cls-8" points="208.96 277.41 211.8 274.58 213.56 260.61 212.18 254.85 208.96 277.41"/>
      </g>
    </g>
    <path class="cls-1" d="M279.38,268.93c-.42,0-.85-.13-1.21-.41-6.94-5.27-16.31-14.63-19.91-23.66-.05-.13-.09-.27-.11-.41-1.75-10.43-3.43-32.4-3.5-33.33-.08-1.1.74-2.06,1.84-2.15,1.1-.08,2.06.74,2.15,1.85.02.22,1.71,22.4,3.42,32.75,3.59,8.78,13.32,17.8,18.54,21.76.88.67,1.05,1.93.38,2.81-.39.52-.99.79-1.6.79Z"/>
    <path class="cls-1" d="M288.63,269.94c-1.55,0-3.3-.7-5.22-2.09-.9-.65-1.1-1.9-.45-2.8.65-.9,1.9-1.1,2.8-.45,1.65,1.2,2.56,1.33,2.87,1.33,1.11,0,2,.9,2,2s-.9,2-2,2Z"/>
    <path class="cls-9" d="M283.98,267.79c2.14-6.36,10.93-5.11,13.95-4.16,3.02.95,5.75,2.13,7.39,3.21,1.64,1.07,1.66,2.86-.52,3.88-2.69,1.26-9.45.14-9.45.14,3.5,1.53,0,3.99-6.14,1.58-2-.78-5.98-2.31-5.22-4.64Z"/>
    <path class="cls-1" d="M262.66,213.87c-.79,5.41-5.27,9.39-8.91,8.86-3.64-.54-3.79-5.36-3-10.77.79-5.41,2.24-9.34,5.88-8.81,3.64.54,6.83,5.31,6.04,10.72Z"/>
    <circle class="cls-1" cx="174.58" cy="191.73" r=".55"/>
    <path class="cls-1" d="M180.14,195.67c0,.3-.24.55-.55.55s-.55-.24-.55-.55.24-.55.55-.55.55.24.55.55Z"/>
    <path class="cls-1" d="M180.75,260.35c0,.3-.24.55-.55.55s-.55-.24-.55-.55.24-.55.55-.55.55.24.55.55Z"/>
    <path class="cls-1" d="M185.76,264.29c0,.3-.24.55-.55.55s-.55-.24-.55-.55.24-.55.55-.55.55.24.55.55Z"/>
  </g>
  <g>
    <path class="cls-1" d="M109.32,273.07c-1.37,0-3.22-.83-4.21-2.27-.09-.13-.06-.31.07-.4.13-.09.31-.06.4.07,1.07,1.55,3.44,2.37,4.49,1.89.11-.05.2-.12.27-.19-.94-.43-1.8-1.28-2.03-2.58-.13-.73-.23-1.71.37-1.85.82-.19,1.9,1.81,2.32,3.32.08.28.1.54.07.77.36.1.72.13,1.03.08.25-.04.6-.14.79-.43-.7-.47-1.17-1.3-1.32-2.41-.22-1.57-.06-1.85.12-1.98.11-.09.26-.1.4-.04.61.26,1.36,2.49,1.5,3.75.02.14.02.27,0,.4.24.09.49.14.78.15.5.03.99-.13,1.38-.36-.08-.05-.16-.11-.23-.17-.6-.51-.84-1.32-.74-2.49.08-.9.28-1.39.65-1.55.13-.06.39-.11.69.14.62.5,1.2,2.07.99,3.19-.04.23-.14.46-.29.66,1.05.18,2.54-.11,3.82-.43.15-.04.31.06.35.21s-.06.31-.21.35c-1.56.39-3.23.7-4.42.35-.53.42-1.27.67-2.01.67-.34,0-.65-.07-.94-.18-.23.39-.65.65-1.22.73-.38.06-.83.02-1.29-.11-.13.22-.32.39-.58.51-.27.13-.61.19-.99.19ZM108.82,268.31c-.03.09-.09.38.05,1.17.19,1.06.87,1.76,1.63,2.13,0-.12-.03-.26-.07-.41-.45-1.64-1.31-2.77-1.61-2.9ZM112.03,267.81c0,.22.02.58.1,1.18.12.82.42,1.45.87,1.85-.13-1.15-.65-2.49-.97-3.04ZM115.64,267.31h0s-.22.11-.3,1.07c-.08.97.09,1.62.54,2,.1.09.22.16.34.22.16-.18.27-.38.31-.59.15-.83-.24-2.05-.69-2.55-.12-.13-.19-.15-.21-.15Z"/>
    <g>
      <polygon class="cls-1" points="193.44 277.41 195 274.71 193.44 272.01 191.77 272.01 192.72 274.71 191.77 277.41 193.44 277.41"/>
      <path class="cls-1" d="M191.88,276.12c-.78,0-1.41-.63-1.41-1.41s.63-1.4,1.41-1.4l-2.65-.53-.7,2.14,1.18,1.8,2.17-.6Z"/>
      <path class="cls-5" d="M192.11,272.01h-3.12l-1.56,2.7,1.56,2.7h3.12l1.56-2.7-1.56-2.7ZM190.55,276.12c-.78,0-1.41-.63-1.41-1.41s.63-1.4,1.41-1.4,1.4.63,1.4,1.4-.63,1.41-1.4,1.41Z"/>
    </g>
    <g>
      <polygon class="cls-5" points="302.08 271.83 300.92 269.82 302.08 267.82 303.32 267.82 302.62 269.82 303.32 271.83 302.08 271.83"/>
      <path class="cls-5" d="M303.23,270.87c.58,0,1.05-.47,1.05-1.05s-.47-1.04-1.05-1.04l1.97-.39.52,1.59-.88,1.34-1.61-.45Z"/>
      <path class="cls-1" d="M303.07,267.82h2.32l1.16,2.01-1.16,2.01h-2.32l-1.16-2.01,1.16-2.01ZM304.22,270.87c.58,0,1.05-.47,1.05-1.05s-.47-1.04-1.05-1.04-1.04.47-1.04,1.04.47,1.05,1.04,1.05Z"/>
    </g>
    <g>
      <path class="cls-1" d="M259.01,274.49h2.6c.68,0,1.23-.55,1.23-1.23h0c0-.68-.55-1.23-1.23-1.23h-2.6c-.68,0-1.23.55-1.23,1.23h0c0,.68.55,1.23,1.23,1.23Z"/>
      <path class="cls-5" d="M254.86,272.17c.64-1.36,2.2-1.97,3.47-1.37,1.28.6,1.79,2.19,1.15,3.55s-2.2,1.97-3.47,1.37c-1.28-.6-1.79-2.19-1.15-3.55Z"/>
      <rect class="cls-1" x="256.77" y="270.36" width=".79" height="5.81" transform="translate(373.25 630.1) rotate(-154.76)"/>
    </g>
  </g>
</svg>