<svg width="34" height="43" viewBox="0 0 34 43" fill="none" xmlns="http://www.w3.org/2000/svg">
<g clip-path="url(#clip0_1_146)">
<path d="M23.375 43H6.375C2.86875 43 0 40.0975 0 36.55V6.45C0 2.9025 2.86875 0 6.375 0H23.375C24.5438 0 25.5 0.9675 25.5 2.15C25.5 3.3325 24.5438 4.3 23.375 4.3H6.375C5.20625 4.3 4.25 5.2675 4.25 6.45V36.55C4.25 37.7325 5.20625 38.7 6.375 38.7H23.375C24.5438 38.7 25.5 39.6675 25.5 40.85C25.5 42.0325 24.5438 43 23.375 43Z" fill="white"/>
<path d="M23.375 32.25C22.8225 32.25 22.2913 32.035 21.8663 31.6265C21.0375 30.788 21.0375 29.4335 21.8663 28.595L26.7325 23.6715H10.6038C9.43501 23.6715 8.47876 22.704 8.47876 21.5215C8.47876 20.339 9.43501 19.3715 10.6038 19.3715H26.7325L21.8663 14.448C21.0375 13.6095 21.0375 12.255 21.8663 11.4165C22.695 10.578 24.0338 10.578 24.8625 11.4165L33.3625 20.0165C33.575 20.2315 33.7238 20.468 33.83 20.726C33.9363 20.984 33.9788 21.242 34 21.543C34 21.844 33.9363 22.1235 33.83 22.36C33.7238 22.618 33.575 22.8545 33.3625 23.0695L24.8625 31.6695C24.4375 32.0995 23.9063 32.293 23.3538 32.293L23.375 32.25Z" fill="white"/>
</g>
<defs>
<clipPath id="clip0_1_146">
<rect width="34" height="43" fill="white"/>
</clipPath>
</defs>
</svg>
