<svg width="100%" height="100%" viewBox="0 0 80 60" fill="none" xmlns="http://www.w3.org/2000/svg">
<g clip-path="url(#clip0_1_132)">
<path d="M11.6091 23.4525C11.6091 23.4525 11.6091 23.4607 11.6091 23.4648V23.4566V23.4525ZM78.8536 27.8733C72.8343 21.6221 66.7992 15.3871 60.7917 9.12768C55.0521 3.15424 48.1307 0.114402 40.0117 0C38.7748 0 37.5457 0.0572012 36.3245 0.228805C29.8404 1.14811 24.2347 3.95097 19.5863 8.74362C13.3188 15.2074 7.07889 21.6997 0.82717 28.1839C-0.283722 29.3401 -0.275844 30.6762 0.842927 31.8366C3.2341 34.3207 5.62134 36.809 8.02433 39.285C12.2473 43.6323 16.2969 48.1716 20.7051 52.3105C27.2286 58.4351 35.0048 60.8294 43.6989 59.7508C50.2422 58.9418 55.8479 55.9837 60.516 51.1502C66.6377 44.8172 72.7476 38.4719 78.8614 32.1267C80.3781 30.5495 80.3781 29.4545 78.8536 27.8733ZM24.6483 10.1655C26.2044 8.88662 27.8746 7.7998 29.6749 6.92543C33.5433 5.05414 37.6245 4.31052 41.8514 4.64964C46.874 5.05005 51.3925 6.89683 55.3436 10.1655C55.5091 10.3044 55.7809 10.4433 55.4815 10.7334C54.4061 11.763 53.4567 12.9234 52.3379 13.904C48.8437 17.5403 45.3456 21.1767 41.8475 24.8131C41.3472 25.3361 40.8272 25.8386 40.3466 26.3861C40.0748 26.6925 39.9172 26.6721 39.6375 26.382C36.1433 22.7375 32.6373 19.1093 29.1352 15.477C28.6349 14.9581 28.1425 14.427 27.6462 13.8999C26.5234 12.9275 25.5819 11.7589 24.5065 10.7293C24.2032 10.4392 24.4829 10.3044 24.6483 10.1655ZM42.785 41.1645C36.2891 42.9254 29.7655 38.3207 28.9619 31.428C28.6586 28.8253 29.1589 26.4188 30.3997 24.1471C30.6164 23.7508 30.7385 23.6527 31.101 24.0327C33.433 26.4842 35.7888 28.907 38.1366 31.3463C39.3932 32.6496 40.5829 32.6578 41.8317 31.3626C44.2977 28.8008 46.7637 26.2349 49.2573 23.6445C50.1713 25.0133 50.707 26.4842 50.967 28.0613C51.94 33.9816 48.3986 39.6404 42.785 41.1645ZM11.6367 23.5955C11.6722 23.8488 11.6603 24.1021 11.6249 24.3473C11.5579 24.8131 11.4122 25.2707 11.3531 25.7365C10.9355 29.0827 10.9788 32.4045 11.5934 35.7222C11.6367 35.9591 11.7549 36.2043 11.6603 36.4494C11.6761 36.4617 11.6879 36.4699 11.7037 36.4821C11.6722 36.5066 11.6446 36.5271 11.6131 36.5475V36.5516C10.3564 35.0603 8.93432 33.7365 7.60676 32.3187C6.99617 31.665 6.37375 31.0153 5.7277 30.3943C5.41255 30.096 5.42043 29.9203 5.7277 29.6098C7.55161 27.7549 9.35583 25.8754 11.164 24C11.3255 23.8325 11.5422 23.7017 11.6131 23.4525C11.6131 23.4566 11.6131 23.4607 11.6131 23.4648V23.4566C11.6446 23.477 11.6722 23.4974 11.7037 23.522C11.6919 23.5342 11.6761 23.5465 11.6603 23.5587C11.6446 23.526 11.6328 23.4974 11.6131 23.4648C11.6249 23.5097 11.6328 23.5546 11.6367 23.5955ZM56.9272 48.3555C47.6383 57.6833 32.4443 57.7038 23.112 48.4045C13.4212 38.7457 13.2676 23.4852 21.1344 13.8509C22.2099 14.9336 23.2893 16.0204 24.3686 17.1073C25.4441 18.0061 26.3186 19.1175 27.3349 20.0817C27.6225 20.3514 27.3862 20.5557 27.2443 20.7681C25.8695 22.811 24.9674 25.0705 24.6286 27.5301C24.0062 32.0409 24.9792 36.1757 27.6659 39.8121C30.187 43.2196 33.5355 45.2993 37.6166 45.9408C46.2438 47.2891 53.8388 41.2339 55.2727 32.9193C56.033 28.5148 55.1506 24.4699 52.7437 20.7681C52.6018 20.5516 52.3615 20.3555 52.6491 20.0817C53.6655 19.1175 54.5439 18.0102 55.6154 17.1113C56.6987 16.0245 57.7781 14.9418 58.8575 13.859C66.6377 23.3422 66.6416 38.6027 56.9272 48.3555ZM74.2682 30.3902C72.397 32.2942 70.5455 34.2227 68.694 36.1471C68.5758 36.2697 68.4143 36.3596 68.3789 36.5516C68.3789 36.5516 68.3749 36.5516 68.3749 36.5475V36.5557C68.3749 36.5557 68.371 36.5516 68.371 36.5475C68.3434 36.5271 68.308 36.5066 68.2804 36.4862C68.2962 36.4699 68.3119 36.4576 68.3277 36.4454C68.3434 36.478 68.3552 36.5148 68.371 36.5475H68.3749C68.2174 35.7589 68.5404 35.0235 68.6349 34.2717C69.0683 30.9009 69.0092 27.5587 68.3828 24.2206C68.3434 24.0082 68.2331 23.7794 68.3198 23.5546C68.3119 23.5424 68.2961 23.5301 68.2843 23.522C68.3119 23.5056 68.3395 23.4811 68.3671 23.4648L68.3749 23.4566H68.3789C69.6434 24.9479 71.0576 26.2717 72.3852 27.6895C72.9997 28.3473 73.6182 29.001 74.2682 29.618C74.5873 29.9203 74.5754 30.0756 74.2682 30.3902Z" fill="#5AC8FB"/>
<path d="M55.6195 17.1113C57.0967 18.7865 58.0618 20.7722 58.8497 22.856C59.6967 25.0991 60.1142 27.4525 60.13 29.8549C60.1536 32.8539 59.6061 35.7507 58.4321 38.5128C56.6516 42.6925 53.8546 45.9448 50.0532 48.2288C47.4769 49.7773 44.6996 50.7089 41.7018 50.9622C38.4794 51.2359 35.3989 50.7334 32.4089 49.5158C30.2817 48.6496 28.3908 47.3749 26.6929 45.8059C23.4981 42.8519 21.3354 39.2318 20.4176 34.8886C19.0546 28.4576 20.26 22.5781 24.1481 17.332C24.2111 17.2462 24.3018 17.1808 24.3766 17.1031C25.4481 18.002 26.3266 19.1134 27.339 20.0776C27.6265 20.3514 27.3941 20.5516 27.2484 20.764C25.8735 22.8069 24.9714 25.0664 24.6327 27.5219C24.0102 32.0368 24.9833 36.1716 27.6699 39.8039C30.1911 43.2114 33.5356 45.2911 37.6206 45.9326C46.2478 47.2809 53.8428 41.2298 55.2767 32.9152C56.037 28.5107 55.1546 24.4617 52.7477 20.7599C52.6098 20.5434 52.3656 20.3473 52.6571 20.0735C53.6734 19.1134 54.548 18.002 55.6234 17.1031L55.6195 17.1113Z" fill="#FEFEFE"/>
<path d="M11.6093 23.4525C11.6408 23.4729 11.6723 23.4975 11.7038 23.5179C11.688 23.5301 11.6723 23.5424 11.6565 23.5587C11.6408 23.522 11.625 23.4852 11.6093 23.4484V23.4525Z" fill="#FEFEFE"/>
<path d="M68.3789 23.4525C68.3632 23.4893 68.3474 23.5261 68.3317 23.5628C68.3159 23.5506 68.3001 23.5383 68.2883 23.5261C68.3198 23.5015 68.3514 23.4811 68.3829 23.4566L68.3789 23.4525Z" fill="#FEFEFE"/>
<path d="M11.6132 36.5557C11.6289 36.5189 11.6447 36.4821 11.6604 36.4454C11.6762 36.4576 11.6919 36.4699 11.7077 36.4821C11.6762 36.5067 11.6447 36.5271 11.6132 36.5516V36.5557Z" fill="#FEFEFE"/>
<path d="M68.379 36.5516C68.3475 36.5271 68.3159 36.5067 68.2844 36.4821C68.3002 36.4699 68.3159 36.4576 68.3317 36.4413C68.3475 36.4781 68.3632 36.5148 68.379 36.5516Z" fill="#FEFEFE"/>
</g>
<defs>
<clipPath id="clip0_1_132">
<rect width="80" height="60" fill="white"/>
</clipPath>
</defs>
</svg>
