<svg width="49" height="49" viewBox="0 0 49 49" fill="none" xmlns="http://www.w3.org/2000/svg">
<g clip-path="url(#clip0_1_141)">
<path d="M24.5 10.7188C19.8488 10.7188 16.0781 14.4895 16.0781 19.1406C16.0781 23.7918 19.8488 27.5625 24.5 27.5625C29.1512 27.5625 32.9219 23.7918 32.9219 19.1406C32.9219 14.4895 29.1512 10.7188 24.5 10.7188ZM24.5 22.9688C22.3888 22.9688 20.6719 21.2509 20.6719 19.1406C20.6719 17.0304 22.385 15.3125 24.5 15.3125C26.615 15.3125 28.3281 17.0294 28.3281 19.1406C28.3281 21.2518 26.615 22.9688 24.5 22.9688ZM24.5 0C10.9676 0 0 10.9676 0 24.5C0 38.0324 10.9676 49 24.5 49C38.0324 49 49 38.0324 49 24.5C49 10.9676 38.0324 0 24.5 0ZM24.5 44.4062C20.0278 44.4062 15.9097 42.9056 12.585 40.4068C14.2406 37.2285 17.4562 35.2188 21.0738 35.2188H27.9348C31.5476 35.2188 34.7594 37.2295 36.4217 40.4068C33.0941 42.9037 28.9693 44.4062 24.5 44.4062ZM39.8316 37.1807C37.2477 33.142 32.8453 30.625 27.9262 30.625H21.0738C16.1585 30.625 11.7571 33.1372 9.16836 37.1788C6.31258 33.7354 4.59375 29.3139 4.59375 24.5C4.59375 13.5229 13.5238 4.59375 24.5 4.59375C35.4762 4.59375 44.4062 13.5238 44.4062 24.5C44.4062 29.3139 42.6836 33.7354 39.8316 37.1807Z" fill="white"/>
</g>
<defs>
<clipPath id="clip0_1_141">
<rect width="49" height="49" fill="white"/>
</clipPath>
</defs>
</svg>
