<svg width="51" height="48" viewBox="0 0 51 48" fill="none" xmlns="http://www.w3.org/2000/svg">
<path d="M21.2365 39.9666L21.2365 39.9667C23.7109 40.5324 26.283 40.5323 28.7441 39.9668L28.7526 39.9649L28.7526 39.9649C29.1261 39.886 29.5507 39.9608 29.8762 40.264C29.8771 40.2648 29.878 40.2657 29.8789 40.2665L33.7352 43.7807C35.3072 43.0972 36.7969 42.2381 38.1611 41.2128L37.0321 36.118L37.0308 36.1125L37.0309 36.1125C36.95 35.7268 37.0466 35.3011 37.3477 34.9935C39.0727 33.1247 40.3569 30.9007 41.1032 28.4687L41.1042 28.4653C41.2285 28.0701 41.526 27.7707 41.9213 27.6451L21.2365 39.9666ZM21.2365 39.9666L21.2285 39.9649M21.2365 39.9666L21.2285 39.9649M21.2285 39.9649C20.8417 39.8832 20.4213 39.9818 20.1174 40.2641C20.1168 40.2646 20.1163 40.2652 20.1157 40.2657L16.2828 43.7802C14.7129 43.097 13.2333 42.2381 11.8698 41.2124L12.9871 36.1169L12.988 36.1125C13.0731 35.7067 12.9457 35.2903 12.6766 34.9993C10.9488 33.1293 9.66281 30.9033 8.91573 28.4687L8.91586 28.4686M21.2285 39.9649L8.91586 28.4686M41.1031 18.5314L41.1032 18.5313C40.3561 16.0967 39.0701 13.8707 37.3423 12.0007L41.1031 18.5314ZM41.1031 18.5314L41.1067 18.5422M41.1031 18.5314L41.1067 18.5422M41.1067 18.5422C41.2284 18.9089 41.5168 19.2265 41.9216 19.355M41.1067 18.5422L41.9216 19.355M37.0309 10.8875L37.0318 10.8831L38.1491 5.78758C36.7854 4.76177 35.3057 3.90279 33.7356 3.21956L29.8906 6.73432C29.89 6.73492 29.8893 6.73553 29.8887 6.73613C29.5817 7.02107 29.1617 7.11469 28.7702 7.03608L28.7571 7.03346L28.7572 7.03329C26.2828 6.46757 23.7107 6.4677 21.2496 7.03317L21.2411 7.03513L21.2411 7.03506C20.8755 7.11232 20.4437 7.04424 20.1244 6.73081L16.2832 3.21953C14.7112 3.90313 13.2214 4.7623 11.8572 5.78765L12.9745 10.8831L12.9755 10.8875L12.9754 10.8875C13.0562 11.2729 12.9599 11.6982 12.6594 12.0057C10.9462 13.875 9.662 16.0994 8.91573 18.5313L8.9147 18.5347C8.79038 18.9299 8.4929 19.2293 8.09764 19.3549L37.0309 10.8875ZM37.0309 10.8875C36.9458 11.2932 37.0731 11.7095 37.3422 12.0005L37.0309 10.8875ZM8.91586 28.4686L8.91226 28.4578M8.91586 28.4686L8.91226 28.4578M8.91226 28.4578C8.79052 28.0912 8.50229 27.7737 8.09764 27.6451L8.91226 28.4578ZM41.9216 19.355C41.9217 19.355 41.9218 19.355 41.9219 19.3551L41.9216 19.355ZM32.6161 46.1778L32.6177 46.1794C32.8558 46.3967 33.1555 46.5 33.4593 46.5C33.6054 46.5 33.7402 46.4812 33.8746 46.4426L33.8974 46.4361L33.9195 46.4274C36.2228 45.5231 38.3851 44.27 40.3164 42.7064C40.695 42.4083 40.8615 41.9223 40.7577 41.4602C40.7576 41.4595 40.7574 41.4587 40.7572 41.458L39.6138 36.2135C41.2354 34.3439 42.4803 32.1727 43.2856 29.8381L48.3791 28.2182L48.3797 28.218C48.836 28.0722 49.1737 27.6769 49.2395 27.2055C49.612 24.7527 49.6121 22.2485 49.2397 19.7957C49.1734 19.3035 48.8287 18.9254 48.3797 18.782L48.3791 18.7818L43.2856 17.1619C42.4804 14.8276 41.2357 12.6566 39.6144 10.7871L40.7698 5.55468C40.7699 5.55442 40.77 5.55415 40.77 5.55389C40.8745 5.09115 40.7079 4.60417 40.3284 4.30579C38.3851 2.74278 36.2228 1.48948 33.906 0.584888L33.906 0.584877L33.9027 0.583639C33.4523 0.411355 32.955 0.523258 32.6106 0.828322L32.6106 0.828252L32.6035 0.834821L28.6664 4.46114C26.242 3.99532 23.7643 3.99532 21.3399 4.46114L17.4049 0.83671C17.0446 0.498208 16.5385 0.417299 16.1036 0.583639L16.1036 0.583621L16.0995 0.585233C13.7972 1.48914 11.635 2.7292 9.69063 4.29302C9.31136 4.59118 9.14467 5.07776 9.24868 5.54028C9.24881 5.54086 9.24894 5.54144 9.24907 5.54202L10.4047 10.7996C8.7833 12.6691 7.53857 14.8402 6.73336 17.1745L1.63984 18.7945L1.63923 18.7947C1.18298 18.9404 0.845257 19.3356 0.779463 19.807C0.406672 22.2615 0.406846 24.7673 0.779984 27.2217L0.779878 27.2218L0.781641 27.2319C0.861881 27.6952 1.17337 28.0818 1.63923 28.2306L1.63984 28.2308L6.73292 29.8507C7.53834 32.1965 8.78343 34.3571 10.4045 36.2256L9.24907 41.458C9.24896 41.4585 9.24884 41.459 9.24873 41.4595C9.14461 41.9221 9.3113 42.4088 9.69064 42.707C11.6339 44.2699 13.7961 45.5232 16.1129 46.4278L16.1162 46.429C16.5666 46.6013 17.0639 46.4894 17.4083 46.1843L17.4083 46.1844L17.4155 46.1778L21.3525 42.5515C23.7769 43.0173 26.2546 43.0173 28.679 42.5515L32.6161 46.1778ZM46.8619 26.0712L41.9219 27.6449L46.8619 20.9288C47.0576 22.6401 47.0576 24.3599 46.8619 26.0712ZM3.15706 20.9288L8.09698 19.3551L8.09699 27.6449L3.15706 26.0712C2.96131 24.3599 2.96131 22.6401 3.15706 20.9288ZM15.5047 23.5C15.5047 28.763 19.7625 33.0405 25.0095 33.0405C30.2565 33.0405 34.5142 28.763 34.5142 23.5C34.5142 18.237 30.2565 13.9595 25.0095 13.9595C19.7625 13.9595 15.5047 18.237 15.5047 23.5ZM18.0055 23.5C18.0055 19.6091 21.1503 16.4662 25.0095 16.4662C28.8807 16.4662 32.0134 19.6085 32.0134 23.5C32.0134 27.3915 28.8807 30.5338 25.0095 30.5338C21.1382 30.5338 18.0055 27.3915 18.0055 23.5Z" fill="white" stroke="white"/>
</svg>
