<svg width="22" height="28" viewBox="0 0 22 28" fill="white" xmlns="http://www.w3.org/2000/svg">
<path d="M0.550415 9.68765L10.45 16.8291C10.6172 16.9497 10.8069 17.0131 11 17.0131C11.1931 17.0131 11.3828 16.9497 11.55 16.8291L21.4496 9.68765C21.6158 9.56781 21.7541 9.39575 21.8505 9.18855C21.947 8.98135 21.9984 8.74623 21.9996 8.50656C22.0003 8.26456 21.9499 8.0266 21.8533 7.81678C21.7567 7.60696 21.6174 7.43273 21.4496 7.31173L11.55 0.183995C11.3828 0.0634579 11.1931 0 11 0C10.8069 0 10.6172 0.0634579 10.45 0.183995L0.550415 7.31173C0.382556 7.43273 0.243286 7.60696 0.146707 7.81678C0.0501268 8.0266 -0.000333129 8.26456 0.000436365 8.50656C0.00159503 8.74623 0.0529691 8.98135 0.149453 9.18855C0.245936 9.39575 0.384169 9.56781 0.550415 9.68765ZM11 3.01312L18.6997 8.50656L11 14L3.30031 8.50656L11 3.01312ZM20.3496 12.8601L11 19.4934L1.65037 12.8052C1.52483 12.7144 1.38614 12.6555 1.24229 12.6319C1.09844 12.6083 0.952269 12.6204 0.8122 12.6677C0.672132 12.7149 0.540931 12.7963 0.426153 12.9071C0.311376 13.0179 0.215291 13.1559 0.143431 13.3133C2.67659e-05 13.6287 -0.0376646 14.002 0.0385809 14.3519C0.114826 14.7019 0.29882 14.9999 0.550415 15.1811L10.45 22.3226C10.6172 22.4431 10.8069 22.5066 11 22.5066C11.1931 22.5066 11.3828 22.4431 11.55 22.3226L21.4496 15.1811C21.7012 14.9999 21.8852 14.7019 21.9614 14.3519C22.0377 14.002 22 13.6287 21.8566 13.3133C21.7847 13.1559 21.6886 13.0179 21.5738 12.9071C21.4591 12.7963 21.3279 12.7149 21.1878 12.6677C21.0477 12.6204 20.9016 12.6083 20.7577 12.6319C20.6139 12.6555 20.4752 12.7144 20.3496 12.8052V12.8601ZM20.3496 18.3535L11 24.9869L1.65037 18.2986C1.52483 18.2078 1.38614 18.1489 1.24229 18.1253C1.09844 18.1017 0.952269 18.1139 0.8122 18.1611C0.672132 18.2083 0.540931 18.2897 0.426153 18.4005C0.311376 18.5113 0.215291 18.6494 0.143431 18.8068C2.67659e-05 19.1221 -0.0376646 19.4955 0.0385809 19.8454C0.114826 20.1953 0.29882 20.4934 0.550415 20.6745L10.45 27.816C10.6172 27.9365 10.8069 28 11 28C11.1931 28 11.3828 27.9365 11.55 27.816L21.4496 20.6745C21.7012 20.4934 21.8852 20.1953 21.9614 19.8454C22.0377 19.4955 22 19.1221 21.8566 18.8068C21.7847 18.6494 21.6886 18.5113 21.5738 18.4005C21.4591 18.2897 21.3279 18.2083 21.1878 18.1611C21.0477 18.1139 20.9016 18.1017 20.7577 18.1253C20.6139 18.1489 20.4752 18.2078 20.3496 18.2986V18.3535Z" fill="#091638"/>
</svg>
