<svg width="88" height="66" viewBox="0 0 88 66" fill="none" xmlns="http://www.w3.org/2000/svg">
<path d="M8 51V8.53333C8 6.80059 8.68961 5.13881 9.91712 3.91357C11.1446 2.68833 12.8095 2 14.5455 2H73.4545C75.1905 2 76.8554 2.68833 78.0829 3.91357C79.3104 5.13881 80 6.80059 80 8.53333V51" stroke="#091638" stroke-width="4" stroke-linecap="round" stroke-linejoin="round"/>
<path d="M2 51H86V57.5C86 59.2239 85.3192 60.8772 84.1075 62.0962C82.8957 63.3152 81.2522 64 79.5385 64H8.46154C6.74783 64 5.10431 63.3152 3.89254 62.0962C2.68077 60.8772 2 59.2239 2 57.5V51Z" stroke="#091638" stroke-width="4" stroke-linecap="round" stroke-linejoin="round"/>
<path d="M51 15H37" stroke="#091638" stroke-width="4" stroke-linecap="round" stroke-linejoin="round"/>
</svg>
